<svg xmlns="http://www.w3.org/2000/svg" xmlns:xlink="http://www.w3.org/1999/xlink" width="500" zoomAndPan="magnify" viewBox="0 0 375 374.999991" height="500" preserveAspectRatio="xMidYMid meet" version="1.0"><defs><g/><clipPath id="497078e5c8"><rect x="0" width="11" y="0" height="9"/></clipPath></defs><rect x="-37.5" width="450" fill="#ffffff" y="-37.499999" height="449.999989" fill-opacity="1"/><rect x="-37.5" width="450" fill="#f8f9f9" y="-37.499999" height="449.999989" fill-opacity="1"/><g fill="#121e36" fill-opacity="1"><g transform="translate(9.930473, 201.25011)"><g><path d="M 26.71875 -41.34375 C 29.445312 -41.34375 31.742188 -41.144531 33.609375 -40.75 C 35.472656 -40.363281 37.335938 -39.695312 39.203125 -38.75 C 39.503906 -38.570312 39.675781 -38.414062 39.71875 -38.28125 C 39.769531 -38.15625 39.835938 -37.832031 39.921875 -37.3125 L 40.703125 -29.578125 C 40.703125 -29.453125 40.582031 -29.378906 40.34375 -29.359375 C 40.101562 -29.335938 39.960938 -29.390625 39.921875 -29.515625 C 37.921875 -36.753906 33.457031 -40.375 26.53125 -40.375 C 22.882812 -40.375 19.675781 -39.570312 16.90625 -37.96875 C 14.132812 -36.363281 11.988281 -34.078125 10.46875 -31.109375 C 8.945312 -28.140625 8.1875 -24.679688 8.1875 -20.734375 C 8.1875 -16.960938 9.019531 -13.503906 10.6875 -10.359375 C 12.363281 -7.222656 14.617188 -4.742188 17.453125 -2.921875 C 20.296875 -1.097656 23.382812 -0.1875 26.71875 -0.1875 C 30.269531 -0.1875 33.148438 -1.050781 35.359375 -2.78125 C 37.578125 -4.519531 39.269531 -7.171875 40.4375 -10.734375 C 40.4375 -10.816406 40.546875 -10.859375 40.765625 -10.859375 C 41.066406 -10.859375 41.21875 -10.789062 41.21875 -10.65625 L 40.5625 -3.515625 C 40.519531 -2.992188 40.457031 -2.664062 40.375 -2.53125 C 40.289062 -2.40625 40.117188 -2.253906 39.859375 -2.078125 C 37.597656 -0.992188 35.484375 -0.238281 33.515625 0.1875 C 31.546875 0.625 29.28125 0.84375 26.71875 0.84375 C 22.164062 0.84375 18.101562 -0.0507812 14.53125 -1.84375 C 10.957031 -3.644531 8.171875 -6.171875 6.171875 -9.421875 C 4.179688 -12.671875 3.1875 -16.398438 3.1875 -20.609375 C 3.1875 -24.679688 4.203125 -28.289062 6.234375 -31.4375 C 8.273438 -34.582031 11.082031 -37.019531 14.65625 -38.75 C 18.238281 -40.476562 22.257812 -41.34375 26.71875 -41.34375 Z M 26.71875 -41.34375 "/></g></g></g><g fill="#121e36" fill-opacity="1"><g transform="translate(54.523129, 201.25011)"><g><path d="M 23.796875 0.78125 C 19.765625 0.78125 16.175781 -0.160156 13.03125 -2.046875 C 9.894531 -3.929688 7.46875 -6.488281 5.75 -9.71875 C 4.039062 -12.945312 3.1875 -16.46875 3.1875 -20.28125 C 3.1875 -24.75 4.3125 -28.570312 6.5625 -31.75 C 8.820312 -34.9375 11.71875 -37.332031 15.25 -38.9375 C 18.78125 -40.539062 22.390625 -41.34375 26.078125 -41.34375 C 30.191406 -41.34375 33.804688 -40.378906 36.921875 -38.453125 C 40.046875 -36.523438 42.441406 -33.976562 44.109375 -30.8125 C 45.773438 -27.65625 46.609375 -24.296875 46.609375 -20.734375 C 46.609375 -16.796875 45.566406 -13.175781 43.484375 -9.875 C 41.410156 -6.582031 38.628906 -3.984375 35.140625 -2.078125 C 31.648438 -0.171875 27.867188 0.78125 23.796875 0.78125 Z M 26.078125 -0.578125 C 29.023438 -0.578125 31.675781 -1.289062 34.03125 -2.71875 C 36.394531 -4.15625 38.257812 -6.257812 39.625 -9.03125 C 40.988281 -11.8125 41.671875 -15.109375 41.671875 -18.921875 C 41.671875 -22.992188 40.910156 -26.609375 39.390625 -29.765625 C 37.878906 -32.929688 35.742188 -35.40625 32.984375 -37.1875 C 30.234375 -38.96875 27.019531 -39.859375 23.34375 -39.859375 C 18.570312 -39.859375 14.84375 -38.316406 12.15625 -35.234375 C 9.46875 -32.160156 8.125 -27.9375 8.125 -22.5625 C 8.125 -18.488281 8.878906 -14.769531 10.390625 -11.40625 C 11.910156 -8.050781 14.035156 -5.40625 16.765625 -3.46875 C 19.503906 -1.539062 22.609375 -0.578125 26.078125 -0.578125 Z M 26.078125 -0.578125 "/></g></g></g><g fill="#121e36" fill-opacity="1"><g transform="translate(104.316094, 201.25011)"><g><path d="M 45.765625 -40.640625 C 45.898438 -40.640625 45.96875 -40.507812 45.96875 -40.25 C 45.96875 -39.988281 45.898438 -39.859375 45.765625 -39.859375 C 43.953125 -39.859375 42.628906 -39.359375 41.796875 -38.359375 C 40.972656 -37.359375 40.5625 -35.734375 40.5625 -33.484375 L 40.5625 0.78125 C 40.5625 0.863281 40.453125 0.925781 40.234375 0.96875 C 40.023438 1.019531 39.878906 1 39.796875 0.90625 L 9.875 -35.296875 L 9.296875 -35.953125 L 9.296875 -7.09375 C 9.296875 -4.832031 9.695312 -3.210938 10.5 -2.234375 C 11.300781 -1.265625 12.59375 -0.78125 14.375 -0.78125 C 14.5 -0.78125 14.5625 -0.648438 14.5625 -0.390625 C 14.5625 -0.128906 14.5 0 14.375 0 C 13.289062 0 12.460938 -0.0195312 11.890625 -0.0625 L 8.640625 -0.125 L 5.328125 -0.0625 C 4.722656 -0.0195312 3.835938 0 2.671875 0 C 2.578125 0 2.53125 -0.128906 2.53125 -0.390625 C 2.53125 -0.648438 2.578125 -0.78125 2.671875 -0.78125 C 4.535156 -0.78125 5.851562 -1.265625 6.625 -2.234375 C 7.40625 -3.210938 7.796875 -4.832031 7.796875 -7.09375 L 7.796875 -37.515625 C 6.109375 -39.078125 4.398438 -39.859375 2.671875 -39.859375 C 2.535156 -39.859375 2.46875 -39.988281 2.46875 -40.25 C 2.46875 -40.507812 2.535156 -40.640625 2.671875 -40.640625 L 5.078125 -40.5625 C 5.585938 -40.519531 6.300781 -40.5 7.21875 -40.5 C 8.164062 -40.5 8.941406 -40.519531 9.546875 -40.5625 C 10.160156 -40.613281 10.640625 -40.640625 10.984375 -40.640625 C 11.328125 -40.640625 11.578125 -40.5625 11.734375 -40.40625 C 11.890625 -40.25 12.140625 -39.914062 12.484375 -39.40625 C 13.003906 -38.625 13.523438 -37.90625 14.046875 -37.25 L 39.078125 -6.5 L 39.078125 -33.484375 C 39.078125 -35.734375 38.695312 -37.359375 37.9375 -38.359375 C 37.175781 -39.359375 35.910156 -39.859375 34.140625 -39.859375 C 34.046875 -39.859375 34 -39.988281 34 -40.25 C 34 -40.507812 34.046875 -40.640625 34.140625 -40.640625 L 36.671875 -40.5625 C 37.972656 -40.476562 39.035156 -40.4375 39.859375 -40.4375 C 40.640625 -40.4375 41.722656 -40.476562 43.109375 -40.5625 Z M 45.765625 -40.640625 "/></g></g></g><g fill="#121e36" fill-opacity="1"><g transform="translate(151.573908, 201.25011)"><g><path d="M 26.71875 -41.34375 C 29.445312 -41.34375 31.742188 -41.144531 33.609375 -40.75 C 35.472656 -40.363281 37.335938 -39.695312 39.203125 -38.75 C 39.503906 -38.570312 39.675781 -38.414062 39.71875 -38.28125 C 39.769531 -38.15625 39.835938 -37.832031 39.921875 -37.3125 L 40.703125 -29.578125 C 40.703125 -29.453125 40.582031 -29.378906 40.34375 -29.359375 C 40.101562 -29.335938 39.960938 -29.390625 39.921875 -29.515625 C 37.921875 -36.753906 33.457031 -40.375 26.53125 -40.375 C 22.882812 -40.375 19.675781 -39.570312 16.90625 -37.96875 C 14.132812 -36.363281 11.988281 -34.078125 10.46875 -31.109375 C 8.945312 -28.140625 8.1875 -24.679688 8.1875 -20.734375 C 8.1875 -16.960938 9.019531 -13.503906 10.6875 -10.359375 C 12.363281 -7.222656 14.617188 -4.742188 17.453125 -2.921875 C 20.296875 -1.097656 23.382812 -0.1875 26.71875 -0.1875 C 30.269531 -0.1875 33.148438 -1.050781 35.359375 -2.78125 C 37.578125 -4.519531 39.269531 -7.171875 40.4375 -10.734375 C 40.4375 -10.816406 40.546875 -10.859375 40.765625 -10.859375 C 41.066406 -10.859375 41.21875 -10.789062 41.21875 -10.65625 L 40.5625 -3.515625 C 40.519531 -2.992188 40.457031 -2.664062 40.375 -2.53125 C 40.289062 -2.40625 40.117188 -2.253906 39.859375 -2.078125 C 37.597656 -0.992188 35.484375 -0.238281 33.515625 0.1875 C 31.546875 0.625 29.28125 0.84375 26.71875 0.84375 C 22.164062 0.84375 18.101562 -0.0507812 14.53125 -1.84375 C 10.957031 -3.644531 8.171875 -6.171875 6.171875 -9.421875 C 4.179688 -12.671875 3.1875 -16.398438 3.1875 -20.609375 C 3.1875 -24.679688 4.203125 -28.289062 6.234375 -31.4375 C 8.273438 -34.582031 11.082031 -37.019531 14.65625 -38.75 C 18.238281 -40.476562 22.257812 -41.34375 26.71875 -41.34375 Z M 26.71875 -41.34375 "/></g></g></g><g fill="#121e36" fill-opacity="1"><g transform="translate(196.166564, 201.25011)"><g><path d="M 30.875 -9.6875 C 30.875 -9.769531 30.960938 -9.8125 31.140625 -9.8125 C 31.273438 -9.8125 31.394531 -9.789062 31.5 -9.75 C 31.601562 -9.707031 31.65625 -9.644531 31.65625 -9.5625 C 31.269531 -6.832031 31.078125 -3.96875 31.078125 -0.96875 C 31.078125 -0.625 31 -0.375 30.84375 -0.21875 C 30.695312 -0.0703125 30.425781 0 30.03125 0 L 2.796875 0 C 2.710938 0 2.671875 -0.128906 2.671875 -0.390625 C 2.671875 -0.648438 2.710938 -0.78125 2.796875 -0.78125 C 4.441406 -0.78125 5.644531 -0.890625 6.40625 -1.109375 C 7.164062 -1.328125 7.6875 -1.75 7.96875 -2.375 C 8.25 -3 8.390625 -3.960938 8.390625 -5.265625 L 8.390625 -35.375 C 8.390625 -36.664062 8.25 -37.613281 7.96875 -38.21875 C 7.6875 -38.832031 7.164062 -39.257812 6.40625 -39.5 C 5.644531 -39.738281 4.441406 -39.859375 2.796875 -39.859375 C 2.710938 -39.859375 2.671875 -39.988281 2.671875 -40.25 C 2.671875 -40.507812 2.710938 -40.640625 2.796875 -40.640625 L 28.9375 -40.640625 C 29.320312 -40.640625 29.515625 -40.441406 29.515625 -40.046875 L 29.640625 -32.046875 C 29.640625 -31.921875 29.53125 -31.847656 29.3125 -31.828125 C 29.101562 -31.804688 28.976562 -31.859375 28.9375 -31.984375 C 28.800781 -34.285156 28.101562 -36.070312 26.84375 -37.34375 C 25.59375 -38.625 23.925781 -39.265625 21.84375 -39.265625 L 17.875 -39.265625 C 16.363281 -39.265625 15.25 -39.144531 14.53125 -38.90625 C 13.8125 -38.664062 13.3125 -38.253906 13.03125 -37.671875 C 12.75 -37.085938 12.609375 -36.210938 12.609375 -35.046875 L 12.609375 -21.84375 L 20.546875 -21.84375 C 22.628906 -21.84375 24.113281 -22.1875 25 -22.875 C 25.882812 -23.570312 26.328125 -24.742188 26.328125 -26.390625 C 26.328125 -26.484375 26.457031 -26.53125 26.71875 -26.53125 C 26.976562 -26.53125 27.109375 -26.484375 27.109375 -26.390625 L 27.046875 -21.125 C 27.046875 -19.875 27.066406 -18.921875 27.109375 -18.265625 L 27.171875 -15.15625 C 27.171875 -15.0625 27.039062 -15.015625 26.78125 -15.015625 C 26.519531 -15.015625 26.390625 -15.0625 26.390625 -15.15625 C 26.390625 -17.0625 25.921875 -18.425781 24.984375 -19.25 C 24.054688 -20.070312 22.507812 -20.484375 20.34375 -20.484375 L 12.609375 -20.484375 L 12.609375 -5.53125 C 12.609375 -4.3125 12.738281 -3.421875 13 -2.859375 C 13.257812 -2.296875 13.734375 -1.90625 14.421875 -1.6875 C 15.117188 -1.46875 16.207031 -1.359375 17.6875 -1.359375 L 22.890625 -1.359375 C 24.960938 -1.359375 26.691406 -2.09375 28.078125 -3.5625 C 29.472656 -5.039062 30.40625 -7.082031 30.875 -9.6875 Z M 30.875 -9.6875 "/></g></g></g><g fill="#121e36" fill-opacity="1"><g transform="translate(231.073639, 201.25011)"><g><path d="M 44.40625 -0.78125 C 44.488281 -0.78125 44.53125 -0.648438 44.53125 -0.390625 C 44.53125 -0.128906 44.488281 0 44.40625 0 L 36.015625 0 C 34.929688 0 32.894531 -1.796875 29.90625 -5.390625 C 26.914062 -8.992188 23.363281 -13.9375 19.25 -20.21875 C 18.070312 -19.957031 16.859375 -19.828125 15.609375 -19.828125 C 15.347656 -19.828125 14.367188 -19.894531 12.671875 -20.03125 L 12.671875 -5.265625 C 12.671875 -3.921875 12.800781 -2.945312 13.0625 -2.34375 C 13.320312 -1.738281 13.832031 -1.328125 14.59375 -1.109375 C 15.351562 -0.890625 16.554688 -0.78125 18.203125 -0.78125 C 18.335938 -0.78125 18.40625 -0.648438 18.40625 -0.390625 C 18.40625 -0.128906 18.335938 0 18.203125 0 C 16.859375 0 15.796875 -0.0195312 15.015625 -0.0625 L 10.53125 -0.125 L 6.109375 -0.0625 C 5.328125 -0.0195312 4.222656 0 2.796875 0 C 2.710938 0 2.671875 -0.128906 2.671875 -0.390625 C 2.671875 -0.648438 2.710938 -0.78125 2.796875 -0.78125 C 4.441406 -0.78125 5.65625 -0.890625 6.4375 -1.109375 C 7.21875 -1.328125 7.75 -1.75 8.03125 -2.375 C 8.3125 -3 8.453125 -3.960938 8.453125 -5.265625 L 8.453125 -35.375 C 8.453125 -36.664062 8.320312 -37.613281 8.0625 -38.21875 C 7.800781 -38.832031 7.289062 -39.257812 6.53125 -39.5 C 5.769531 -39.738281 4.566406 -39.859375 2.921875 -39.859375 C 2.796875 -39.859375 2.734375 -39.988281 2.734375 -40.25 C 2.734375 -40.507812 2.796875 -40.640625 2.921875 -40.640625 L 6.109375 -40.5625 C 7.929688 -40.476562 9.40625 -40.4375 10.53125 -40.4375 C 11.488281 -40.4375 12.378906 -40.457031 13.203125 -40.5 C 14.023438 -40.539062 14.71875 -40.585938 15.28125 -40.640625 C 16.882812 -40.765625 18.335938 -40.828125 19.640625 -40.828125 C 23.054688 -40.828125 25.695312 -40.046875 27.5625 -38.484375 C 29.425781 -36.929688 30.359375 -34.851562 30.359375 -32.25 C 30.359375 -29.90625 29.675781 -27.789062 28.3125 -25.90625 C 26.945312 -24.019531 25.140625 -22.535156 22.890625 -21.453125 C 26.523438 -16.210938 29.585938 -12.109375 32.078125 -9.140625 C 34.578125 -6.171875 36.789062 -4.035156 38.71875 -2.734375 C 40.644531 -1.429688 42.539062 -0.78125 44.40625 -0.78125 Z M 12.671875 -21.578125 C 13.753906 -21.410156 15.035156 -21.328125 16.515625 -21.328125 C 19.890625 -21.328125 22.300781 -22.0625 23.75 -23.53125 C 25.207031 -25.007812 25.9375 -27.285156 25.9375 -30.359375 C 25.9375 -33.742188 25.1875 -36.171875 23.6875 -37.640625 C 22.195312 -39.117188 20.023438 -39.859375 17.171875 -39.859375 C 15.472656 -39.859375 14.296875 -39.550781 13.640625 -38.9375 C 12.992188 -38.332031 12.671875 -37.097656 12.671875 -35.234375 Z M 12.671875 -21.578125 "/></g></g></g><g fill="#121e36" fill-opacity="1"><g transform="translate(274.821241, 201.25011)"><g><path d="M 12.28125 -39.46875 C 9.550781 -39.46875 7.503906 -38.769531 6.140625 -37.375 C 4.773438 -35.988281 3.789062 -33.628906 3.1875 -30.296875 C 3.1875 -30.210938 3.066406 -30.171875 2.828125 -30.171875 C 2.585938 -30.171875 2.46875 -30.210938 2.46875 -30.296875 C 2.644531 -31.859375 2.835938 -33.894531 3.046875 -36.40625 C 3.265625 -38.914062 3.375 -40.800781 3.375 -42.0625 C 3.375 -42.28125 3.492188 -42.390625 3.734375 -42.390625 C 3.972656 -42.390625 4.09375 -42.28125 4.09375 -42.0625 C 4.09375 -41.113281 5.265625 -40.640625 7.609375 -40.640625 C 11.296875 -40.503906 15.648438 -40.4375 20.671875 -40.4375 C 23.234375 -40.4375 25.941406 -40.476562 28.796875 -40.5625 L 33.21875 -40.640625 C 34.78125 -40.640625 35.941406 -40.742188 36.703125 -40.953125 C 37.460938 -41.171875 37.953125 -41.609375 38.171875 -42.265625 C 38.210938 -42.429688 38.335938 -42.515625 38.546875 -42.515625 C 38.765625 -42.515625 38.875 -42.429688 38.875 -42.265625 C 38.75 -41.003906 38.617188 -39.09375 38.484375 -36.53125 C 38.359375 -33.976562 38.296875 -31.898438 38.296875 -30.296875 C 38.296875 -30.210938 38.164062 -30.171875 37.90625 -30.171875 C 37.644531 -30.171875 37.515625 -30.210938 37.515625 -30.296875 C 37.378906 -33.679688 36.679688 -36.054688 35.421875 -37.421875 C 34.171875 -38.785156 32.09375 -39.46875 29.1875 -39.46875 C 27.238281 -39.46875 25.851562 -39.378906 25.03125 -39.203125 C 24.207031 -39.023438 23.644531 -38.65625 23.34375 -38.09375 C 23.039062 -37.53125 22.890625 -36.578125 22.890625 -35.234375 L 22.890625 -5.265625 C 22.890625 -3.921875 23.039062 -2.945312 23.34375 -2.34375 C 23.644531 -1.738281 24.226562 -1.328125 25.09375 -1.109375 C 25.957031 -0.890625 27.320312 -0.78125 29.1875 -0.78125 C 29.320312 -0.78125 29.390625 -0.648438 29.390625 -0.390625 C 29.390625 -0.128906 29.320312 0 29.1875 0 C 27.757812 0 26.613281 -0.0195312 25.75 -0.0625 L 20.671875 -0.125 L 15.796875 -0.0625 C 14.929688 -0.0195312 13.738281 0 12.21875 0 C 12.132812 0 12.09375 -0.128906 12.09375 -0.390625 C 12.09375 -0.648438 12.132812 -0.78125 12.21875 -0.78125 C 14.082031 -0.78125 15.445312 -0.890625 16.3125 -1.109375 C 17.1875 -1.328125 17.785156 -1.75 18.109375 -2.375 C 18.429688 -3 18.59375 -3.960938 18.59375 -5.265625 L 18.59375 -35.375 C 18.59375 -36.71875 18.441406 -37.660156 18.140625 -38.203125 C 17.835938 -38.742188 17.273438 -39.085938 16.453125 -39.234375 C 15.628906 -39.390625 14.238281 -39.46875 12.28125 -39.46875 Z M 12.28125 -39.46875 "/></g></g></g><g fill="#121e36" fill-opacity="1"><g transform="translate(316.033679, 201.25011)"><g><path d="M 23.796875 0.78125 C 19.765625 0.78125 16.175781 -0.160156 13.03125 -2.046875 C 9.894531 -3.929688 7.46875 -6.488281 5.75 -9.71875 C 4.039062 -12.945312 3.1875 -16.46875 3.1875 -20.28125 C 3.1875 -24.75 4.3125 -28.570312 6.5625 -31.75 C 8.820312 -34.9375 11.71875 -37.332031 15.25 -38.9375 C 18.78125 -40.539062 22.390625 -41.34375 26.078125 -41.34375 C 30.191406 -41.34375 33.804688 -40.378906 36.921875 -38.453125 C 40.046875 -36.523438 42.441406 -33.976562 44.109375 -30.8125 C 45.773438 -27.65625 46.609375 -24.296875 46.609375 -20.734375 C 46.609375 -16.796875 45.566406 -13.175781 43.484375 -9.875 C 41.410156 -6.582031 38.628906 -3.984375 35.140625 -2.078125 C 31.648438 -0.171875 27.867188 0.78125 23.796875 0.78125 Z M 26.078125 -0.578125 C 29.023438 -0.578125 31.675781 -1.289062 34.03125 -2.71875 C 36.394531 -4.15625 38.257812 -6.257812 39.625 -9.03125 C 40.988281 -11.8125 41.671875 -15.109375 41.671875 -18.921875 C 41.671875 -22.992188 40.910156 -26.609375 39.390625 -29.765625 C 37.878906 -32.929688 35.742188 -35.40625 32.984375 -37.1875 C 30.234375 -38.96875 27.019531 -39.859375 23.34375 -39.859375 C 18.570312 -39.859375 14.84375 -38.316406 12.15625 -35.234375 C 9.46875 -32.160156 8.125 -27.9375 8.125 -22.5625 C 8.125 -18.488281 8.878906 -14.769531 10.390625 -11.40625 C 11.910156 -8.050781 14.035156 -5.40625 16.765625 -3.46875 C 19.503906 -1.539062 22.609375 -0.578125 26.078125 -0.578125 Z M 26.078125 -0.578125 "/></g></g></g><g fill="#121e36" fill-opacity="1"><g transform="translate(25.715628, 227.500108)"><g><path d="M 9.125 -9.859375 C 9.125 -9.816406 9.085938 -9.789062 9.015625 -9.78125 C 8.953125 -9.78125 8.914062 -9.800781 8.90625 -9.84375 C 8.863281 -10.550781 8.648438 -11.097656 8.265625 -11.484375 C 7.878906 -11.878906 7.363281 -12.078125 6.71875 -12.078125 L 5.5 -12.078125 C 5.039062 -12.078125 4.695312 -12.039062 4.46875 -11.96875 C 4.25 -11.90625 4.09375 -11.785156 4 -11.609375 C 3.914062 -11.441406 3.875 -11.191406 3.875 -10.859375 L 3.875 -6.484375 L 5.90625 -6.484375 C 6.601562 -6.484375 7.101562 -6.59375 7.40625 -6.8125 C 7.707031 -7.03125 7.859375 -7.382812 7.859375 -7.875 C 7.859375 -7.90625 7.894531 -7.921875 7.96875 -7.921875 C 8.050781 -7.921875 8.09375 -7.90625 8.09375 -7.875 L 8.078125 -6.265625 C 8.078125 -5.878906 8.082031 -5.582031 8.09375 -5.375 L 8.125 -4.421875 C 8.125 -4.390625 8.082031 -4.375 8 -4.375 C 7.914062 -4.375 7.875 -4.390625 7.875 -4.421875 C 7.875 -5.003906 7.71875 -5.421875 7.40625 -5.671875 C 7.09375 -5.929688 6.570312 -6.0625 5.84375 -6.0625 L 3.875 -6.0625 L 3.875 -1.703125 C 3.875 -1.273438 3.929688 -0.960938 4.046875 -0.765625 C 4.160156 -0.578125 4.382812 -0.441406 4.71875 -0.359375 C 5.050781 -0.273438 5.578125 -0.234375 6.296875 -0.234375 C 6.335938 -0.234375 6.359375 -0.191406 6.359375 -0.109375 C 6.359375 -0.0351562 6.335938 0 6.296875 0 C 5.753906 0 5.328125 -0.00390625 5.015625 -0.015625 L 3.21875 -0.046875 L 1.859375 -0.015625 C 1.617188 -0.00390625 1.28125 0 0.84375 0 C 0.8125 0 0.796875 -0.0351562 0.796875 -0.109375 C 0.796875 -0.191406 0.8125 -0.234375 0.84375 -0.234375 C 1.34375 -0.234375 1.710938 -0.265625 1.953125 -0.328125 C 2.191406 -0.398438 2.351562 -0.53125 2.4375 -0.71875 C 2.53125 -0.914062 2.578125 -1.21875 2.578125 -1.625 L 2.578125 -10.875 C 2.578125 -11.28125 2.53125 -11.578125 2.4375 -11.765625 C 2.351562 -11.953125 2.195312 -12.082031 1.96875 -12.15625 C 1.738281 -12.226562 1.367188 -12.265625 0.859375 -12.265625 C 0.828125 -12.265625 0.8125 -12.300781 0.8125 -12.375 C 0.8125 -12.457031 0.828125 -12.5 0.859375 -12.5 L 8.90625 -12.5 C 9.019531 -12.5 9.078125 -12.4375 9.078125 -12.3125 Z M 9.125 -9.859375 "/></g></g></g><g fill="#121e36" fill-opacity="1"><g transform="translate(35.891611, 227.500108)"><g><path d="M 13.65625 -0.234375 C 13.6875 -0.234375 13.703125 -0.191406 13.703125 -0.109375 C 13.703125 -0.0351562 13.6875 0 13.65625 0 L 11.078125 0 C 10.742188 0 10.113281 -0.550781 9.1875 -1.65625 C 8.269531 -2.757812 7.179688 -4.28125 5.921875 -6.21875 C 5.554688 -6.132812 5.179688 -6.09375 4.796875 -6.09375 C 4.722656 -6.09375 4.425781 -6.113281 3.90625 -6.15625 L 3.90625 -1.625 C 3.90625 -1.207031 3.941406 -0.90625 4.015625 -0.71875 C 4.097656 -0.53125 4.253906 -0.398438 4.484375 -0.328125 C 4.722656 -0.265625 5.09375 -0.234375 5.59375 -0.234375 C 5.632812 -0.234375 5.65625 -0.191406 5.65625 -0.109375 C 5.65625 -0.0351562 5.632812 0 5.59375 0 C 5.1875 0 4.863281 -0.00390625 4.625 -0.015625 L 3.234375 -0.046875 L 1.875 -0.015625 C 1.632812 -0.00390625 1.296875 0 0.859375 0 C 0.828125 0 0.8125 -0.0351562 0.8125 -0.109375 C 0.8125 -0.191406 0.828125 -0.234375 0.859375 -0.234375 C 1.367188 -0.234375 1.742188 -0.265625 1.984375 -0.328125 C 2.222656 -0.398438 2.382812 -0.53125 2.46875 -0.71875 C 2.550781 -0.914062 2.59375 -1.21875 2.59375 -1.625 L 2.59375 -10.875 C 2.59375 -11.28125 2.550781 -11.578125 2.46875 -11.765625 C 2.394531 -11.953125 2.238281 -12.082031 2 -12.15625 C 1.769531 -12.226562 1.40625 -12.265625 0.90625 -12.265625 C 0.863281 -12.265625 0.84375 -12.300781 0.84375 -12.375 C 0.84375 -12.457031 0.863281 -12.5 0.90625 -12.5 L 1.875 -12.484375 C 2.4375 -12.453125 2.890625 -12.4375 3.234375 -12.4375 C 3.535156 -12.4375 3.8125 -12.441406 4.0625 -12.453125 C 4.3125 -12.472656 4.523438 -12.488281 4.703125 -12.5 C 5.191406 -12.539062 5.640625 -12.5625 6.046875 -12.5625 C 7.097656 -12.5625 7.910156 -12.320312 8.484375 -11.84375 C 9.054688 -11.363281 9.34375 -10.722656 9.34375 -9.921875 C 9.34375 -9.203125 9.128906 -8.550781 8.703125 -7.96875 C 8.285156 -7.382812 7.734375 -6.925781 7.046875 -6.59375 C 8.160156 -4.988281 9.097656 -3.726562 9.859375 -2.8125 C 10.628906 -1.894531 11.3125 -1.234375 11.90625 -0.828125 C 12.5 -0.429688 13.082031 -0.234375 13.65625 -0.234375 Z M 3.90625 -6.640625 C 4.238281 -6.585938 4.628906 -6.5625 5.078125 -6.5625 C 6.117188 -6.5625 6.863281 -6.785156 7.3125 -7.234375 C 7.757812 -7.691406 7.984375 -8.394531 7.984375 -9.34375 C 7.984375 -10.382812 7.75 -11.128906 7.28125 -11.578125 C 6.820312 -12.035156 6.15625 -12.265625 5.28125 -12.265625 C 4.757812 -12.265625 4.398438 -12.171875 4.203125 -11.984375 C 4.003906 -11.796875 3.90625 -11.414062 3.90625 -10.84375 Z M 3.90625 -6.640625 "/></g></g></g><g fill="#121e36" fill-opacity="1"><g transform="translate(49.346302, 227.500108)"><g><path d="M 7.3125 0.234375 C 6.070312 0.234375 4.96875 -0.0507812 4 -0.625 C 3.039062 -1.207031 2.296875 -1.992188 1.765625 -2.984375 C 1.242188 -3.984375 0.984375 -5.066406 0.984375 -6.234375 C 0.984375 -7.609375 1.328125 -8.785156 2.015625 -9.765625 C 2.710938 -10.742188 3.601562 -11.476562 4.6875 -11.96875 C 5.769531 -12.46875 6.878906 -12.71875 8.015625 -12.71875 C 9.285156 -12.71875 10.398438 -12.421875 11.359375 -11.828125 C 12.316406 -11.234375 13.050781 -10.445312 13.5625 -9.46875 C 14.082031 -8.5 14.34375 -7.46875 14.34375 -6.375 C 14.34375 -5.164062 14.019531 -4.050781 13.375 -3.03125 C 12.738281 -2.019531 11.882812 -1.222656 10.8125 -0.640625 C 9.738281 -0.0546875 8.570312 0.234375 7.3125 0.234375 Z M 8.015625 -0.1875 C 8.921875 -0.1875 9.738281 -0.40625 10.46875 -0.84375 C 11.195312 -1.28125 11.769531 -1.925781 12.1875 -2.78125 C 12.601562 -3.632812 12.8125 -4.644531 12.8125 -5.8125 C 12.8125 -7.070312 12.578125 -8.1875 12.109375 -9.15625 C 11.648438 -10.132812 10.992188 -10.894531 10.140625 -11.4375 C 9.296875 -11.988281 8.3125 -12.265625 7.1875 -12.265625 C 5.71875 -12.265625 4.566406 -11.789062 3.734375 -10.84375 C 2.910156 -9.894531 2.5 -8.59375 2.5 -6.9375 C 2.5 -5.6875 2.734375 -4.539062 3.203125 -3.5 C 3.671875 -2.46875 4.320312 -1.65625 5.15625 -1.0625 C 6 -0.476562 6.953125 -0.1875 8.015625 -0.1875 Z M 8.015625 -0.1875 "/></g></g></g><g fill="#121e36" fill-opacity="1"><g transform="translate(64.660259, 227.500108)"><g><path d="M 16.234375 -0.234375 C 16.273438 -0.234375 16.296875 -0.191406 16.296875 -0.109375 C 16.296875 -0.0351562 16.273438 0 16.234375 0 C 15.828125 0 15.503906 -0.00390625 15.265625 -0.015625 L 13.875 -0.046875 L 12.59375 -0.015625 C 12.382812 -0.00390625 12.085938 0 11.703125 0 C 11.671875 0 11.65625 -0.0351562 11.65625 -0.109375 C 11.65625 -0.191406 11.671875 -0.234375 11.703125 -0.234375 C 12.148438 -0.234375 12.484375 -0.269531 12.703125 -0.34375 C 12.929688 -0.414062 13.082031 -0.546875 13.15625 -0.734375 C 13.226562 -0.921875 13.25 -1.21875 13.21875 -1.625 L 12.859375 -10.71875 L 8.296875 -0.140625 C 8.273438 -0.0859375 8.222656 -0.0625 8.140625 -0.0625 C 8.078125 -0.0625 8.015625 -0.0859375 7.953125 -0.140625 L 3.046875 -10.59375 L 2.859375 -2.1875 C 2.847656 -1.476562 2.96875 -0.972656 3.21875 -0.671875 C 3.46875 -0.378906 3.914062 -0.234375 4.5625 -0.234375 C 4.582031 -0.234375 4.59375 -0.191406 4.59375 -0.109375 C 4.59375 -0.0351562 4.582031 0 4.5625 0 C 4.1875 0 3.898438 -0.00390625 3.703125 -0.015625 L 2.625 -0.046875 L 1.578125 -0.015625 C 1.390625 -0.00390625 1.125 0 0.78125 0 C 0.75 0 0.734375 -0.0351562 0.734375 -0.109375 C 0.734375 -0.191406 0.75 -0.234375 0.78125 -0.234375 C 1.34375 -0.234375 1.742188 -0.382812 1.984375 -0.6875 C 2.234375 -0.988281 2.363281 -1.488281 2.375 -2.1875 L 2.5625 -11.453125 C 2.15625 -11.992188 1.609375 -12.265625 0.921875 -12.265625 C 0.890625 -12.265625 0.875 -12.300781 0.875 -12.375 C 0.875 -12.457031 0.890625 -12.5 0.921875 -12.5 L 1.65625 -12.484375 C 1.789062 -12.460938 1.976562 -12.453125 2.21875 -12.453125 C 2.457031 -12.453125 2.660156 -12.457031 2.828125 -12.46875 C 2.992188 -12.488281 3.125 -12.5 3.21875 -12.5 C 3.394531 -12.5 3.535156 -12.4375 3.640625 -12.3125 C 3.753906 -12.1875 3.921875 -11.898438 4.140625 -11.453125 L 8.59375 -2.0625 L 12.953125 -12 C 13.109375 -12.332031 13.3125 -12.5 13.5625 -12.5 C 13.625 -12.5 13.71875 -12.488281 13.84375 -12.46875 C 13.976562 -12.457031 14.148438 -12.453125 14.359375 -12.453125 L 15.296875 -12.484375 C 15.441406 -12.492188 15.660156 -12.5 15.953125 -12.5 C 15.992188 -12.5 16.015625 -12.457031 16.015625 -12.375 C 16.015625 -12.300781 15.992188 -12.265625 15.953125 -12.265625 C 15.285156 -12.265625 14.804688 -12.164062 14.515625 -11.96875 C 14.234375 -11.78125 14.101562 -11.414062 14.125 -10.875 L 14.515625 -1.625 C 14.535156 -1.207031 14.585938 -0.90625 14.671875 -0.71875 C 14.753906 -0.53125 14.910156 -0.398438 15.140625 -0.328125 C 15.367188 -0.265625 15.734375 -0.234375 16.234375 -0.234375 Z M 16.234375 -0.234375 "/></g></g></g><g fill="#121e36" fill-opacity="1"><g transform="translate(81.373667, 227.500108)"><g/></g></g><g fill="#121e36" fill-opacity="1"><g transform="translate(86.051817, 227.500108)"><g><path d="M 3.78125 -12.140625 C 2.9375 -12.140625 2.304688 -11.925781 1.890625 -11.5 C 1.472656 -11.070312 1.171875 -10.34375 0.984375 -9.3125 C 0.984375 -9.289062 0.945312 -9.28125 0.875 -9.28125 C 0.800781 -9.28125 0.765625 -9.289062 0.765625 -9.3125 C 0.816406 -9.800781 0.875 -10.429688 0.9375 -11.203125 C 1.007812 -11.972656 1.046875 -12.550781 1.046875 -12.9375 C 1.046875 -13.007812 1.082031 -13.046875 1.15625 -13.046875 C 1.226562 -13.046875 1.265625 -13.007812 1.265625 -12.9375 C 1.265625 -12.644531 1.625 -12.5 2.34375 -12.5 C 3.476562 -12.457031 4.816406 -12.4375 6.359375 -12.4375 C 7.148438 -12.4375 7.984375 -12.453125 8.859375 -12.484375 L 10.21875 -12.5 C 10.695312 -12.5 11.050781 -12.53125 11.28125 -12.59375 C 11.519531 -12.664062 11.671875 -12.800781 11.734375 -13 C 11.753906 -13.050781 11.796875 -13.078125 11.859375 -13.078125 C 11.921875 -13.078125 11.953125 -13.050781 11.953125 -13 C 11.921875 -12.613281 11.882812 -12.023438 11.84375 -11.234375 C 11.800781 -10.453125 11.78125 -9.8125 11.78125 -9.3125 C 11.78125 -9.289062 11.738281 -9.28125 11.65625 -9.28125 C 11.582031 -9.28125 11.546875 -9.289062 11.546875 -9.3125 C 11.503906 -10.351562 11.285156 -11.082031 10.890625 -11.5 C 10.503906 -11.925781 9.867188 -12.140625 8.984375 -12.140625 C 8.378906 -12.140625 7.945312 -12.113281 7.6875 -12.0625 C 7.4375 -12.007812 7.265625 -11.894531 7.171875 -11.71875 C 7.085938 -11.539062 7.046875 -11.25 7.046875 -10.84375 L 7.046875 -1.625 C 7.046875 -1.207031 7.085938 -0.90625 7.171875 -0.71875 C 7.265625 -0.53125 7.445312 -0.398438 7.71875 -0.328125 C 7.988281 -0.265625 8.410156 -0.234375 8.984375 -0.234375 C 9.023438 -0.234375 9.046875 -0.191406 9.046875 -0.109375 C 9.046875 -0.0351562 9.023438 0 8.984375 0 C 8.535156 0 8.179688 -0.00390625 7.921875 -0.015625 L 6.359375 -0.046875 L 4.859375 -0.015625 C 4.585938 -0.00390625 4.222656 0 3.765625 0 C 3.734375 0 3.71875 -0.0351562 3.71875 -0.109375 C 3.71875 -0.191406 3.734375 -0.234375 3.765625 -0.234375 C 4.335938 -0.234375 4.753906 -0.265625 5.015625 -0.328125 C 5.285156 -0.398438 5.46875 -0.53125 5.5625 -0.71875 C 5.664062 -0.914062 5.71875 -1.21875 5.71875 -1.625 L 5.71875 -10.875 C 5.71875 -11.289062 5.671875 -11.582031 5.578125 -11.75 C 5.484375 -11.914062 5.3125 -12.019531 5.0625 -12.0625 C 4.8125 -12.113281 4.382812 -12.140625 3.78125 -12.140625 Z M 3.78125 -12.140625 "/></g></g></g><g fill="#121e36" fill-opacity="1"><g transform="translate(98.726812, 227.500108)"><g><path d="M 14.4375 -0.234375 C 14.476562 -0.234375 14.5 -0.191406 14.5 -0.109375 C 14.5 -0.0351562 14.476562 0 14.4375 0 C 14.019531 0 13.691406 -0.00390625 13.453125 -0.015625 L 12.078125 -0.046875 L 10.59375 -0.015625 C 10.375 -0.00390625 10.0625 0 9.65625 0 C 9.613281 0 9.59375 -0.0351562 9.59375 -0.109375 C 9.59375 -0.191406 9.613281 -0.234375 9.65625 -0.234375 C 10.175781 -0.234375 10.554688 -0.265625 10.796875 -0.328125 C 11.035156 -0.398438 11.195312 -0.53125 11.28125 -0.71875 C 11.375 -0.914062 11.421875 -1.21875 11.421875 -1.625 L 11.421875 -6.296875 L 3.734375 -6.296875 L 3.734375 -1.625 C 3.734375 -1.21875 3.773438 -0.914062 3.859375 -0.71875 C 3.953125 -0.53125 4.117188 -0.398438 4.359375 -0.328125 C 4.597656 -0.265625 4.976562 -0.234375 5.5 -0.234375 C 5.53125 -0.234375 5.546875 -0.191406 5.546875 -0.109375 C 5.546875 -0.0351562 5.53125 0 5.5 0 C 5.082031 0 4.753906 -0.00390625 4.515625 -0.015625 L 3.078125 -0.046875 L 1.703125 -0.015625 C 1.460938 -0.00390625 1.128906 0 0.703125 0 C 0.671875 0 0.65625 -0.0351562 0.65625 -0.109375 C 0.65625 -0.191406 0.671875 -0.234375 0.703125 -0.234375 C 1.203125 -0.234375 1.578125 -0.265625 1.828125 -0.328125 C 2.078125 -0.398438 2.242188 -0.53125 2.328125 -0.71875 C 2.410156 -0.914062 2.453125 -1.21875 2.453125 -1.625 L 2.453125 -10.875 C 2.453125 -11.28125 2.410156 -11.578125 2.328125 -11.765625 C 2.242188 -11.953125 2.082031 -12.082031 1.84375 -12.15625 C 1.601562 -12.226562 1.226562 -12.265625 0.71875 -12.265625 C 0.695312 -12.265625 0.6875 -12.300781 0.6875 -12.375 C 0.6875 -12.457031 0.695312 -12.5 0.71875 -12.5 L 1.734375 -12.484375 C 2.296875 -12.453125 2.742188 -12.4375 3.078125 -12.4375 C 3.460938 -12.4375 3.953125 -12.453125 4.546875 -12.484375 L 5.5 -12.5 C 5.53125 -12.5 5.546875 -12.457031 5.546875 -12.375 C 5.546875 -12.300781 5.53125 -12.265625 5.5 -12.265625 C 4.988281 -12.265625 4.609375 -12.222656 4.359375 -12.140625 C 4.117188 -12.054688 3.953125 -11.914062 3.859375 -11.71875 C 3.773438 -11.53125 3.734375 -11.238281 3.734375 -10.84375 L 3.734375 -6.71875 L 11.421875 -6.71875 L 11.421875 -10.84375 C 11.421875 -11.238281 11.375 -11.53125 11.28125 -11.71875 C 11.195312 -11.914062 11.035156 -12.054688 10.796875 -12.140625 C 10.554688 -12.222656 10.175781 -12.265625 9.65625 -12.265625 C 9.613281 -12.265625 9.59375 -12.300781 9.59375 -12.375 C 9.59375 -12.457031 9.613281 -12.5 9.65625 -12.5 L 10.59375 -12.484375 C 11.1875 -12.453125 11.679688 -12.4375 12.078125 -12.4375 C 12.441406 -12.4375 12.898438 -12.453125 13.453125 -12.484375 L 14.4375 -12.5 C 14.476562 -12.5 14.5 -12.457031 14.5 -12.375 C 14.5 -12.300781 14.476562 -12.265625 14.4375 -12.265625 C 13.9375 -12.265625 13.5625 -12.226562 13.3125 -12.15625 C 13.070312 -12.082031 12.910156 -11.953125 12.828125 -11.765625 C 12.742188 -11.578125 12.703125 -11.28125 12.703125 -10.875 L 12.703125 -1.625 C 12.703125 -1.21875 12.742188 -0.914062 12.828125 -0.71875 C 12.910156 -0.53125 13.070312 -0.398438 13.3125 -0.328125 C 13.5625 -0.265625 13.9375 -0.234375 14.4375 -0.234375 Z M 14.4375 -0.234375 "/></g></g></g><g fill="#121e36" fill-opacity="1"><g transform="translate(113.900829, 227.500108)"><g><path d="M 9.5 -2.984375 C 9.5 -3.003906 9.523438 -3.015625 9.578125 -3.015625 C 9.617188 -3.015625 9.65625 -3.007812 9.6875 -3 C 9.71875 -2.988281 9.734375 -2.96875 9.734375 -2.9375 C 9.617188 -2.101562 9.5625 -1.222656 9.5625 -0.296875 C 9.5625 -0.191406 9.535156 -0.113281 9.484375 -0.0625 C 9.441406 -0.0195312 9.359375 0 9.234375 0 L 0.859375 0 C 0.828125 0 0.8125 -0.0351562 0.8125 -0.109375 C 0.8125 -0.191406 0.828125 -0.234375 0.859375 -0.234375 C 1.367188 -0.234375 1.738281 -0.265625 1.96875 -0.328125 C 2.195312 -0.398438 2.351562 -0.53125 2.4375 -0.71875 C 2.53125 -0.914062 2.578125 -1.21875 2.578125 -1.625 L 2.578125 -10.875 C 2.578125 -11.28125 2.53125 -11.578125 2.4375 -11.765625 C 2.351562 -11.953125 2.195312 -12.082031 1.96875 -12.15625 C 1.738281 -12.226562 1.367188 -12.265625 0.859375 -12.265625 C 0.828125 -12.265625 0.8125 -12.300781 0.8125 -12.375 C 0.8125 -12.457031 0.828125 -12.5 0.859375 -12.5 L 8.90625 -12.5 C 9.019531 -12.5 9.078125 -12.4375 9.078125 -12.3125 L 9.125 -9.859375 C 9.125 -9.816406 9.085938 -9.789062 9.015625 -9.78125 C 8.953125 -9.78125 8.914062 -9.800781 8.90625 -9.84375 C 8.863281 -10.550781 8.648438 -11.097656 8.265625 -11.484375 C 7.878906 -11.878906 7.363281 -12.078125 6.71875 -12.078125 L 5.5 -12.078125 C 5.03125 -12.078125 4.6875 -12.039062 4.46875 -11.96875 C 4.25 -11.894531 4.09375 -11.765625 4 -11.578125 C 3.914062 -11.398438 3.875 -11.132812 3.875 -10.78125 L 3.875 -6.71875 L 6.3125 -6.71875 C 6.957031 -6.71875 7.414062 -6.820312 7.6875 -7.03125 C 7.957031 -7.25 8.09375 -7.613281 8.09375 -8.125 C 8.09375 -8.144531 8.132812 -8.15625 8.21875 -8.15625 C 8.300781 -8.15625 8.34375 -8.144531 8.34375 -8.125 L 8.3125 -6.5 C 8.3125 -6.113281 8.320312 -5.820312 8.34375 -5.625 L 8.359375 -4.65625 C 8.359375 -4.632812 8.316406 -4.625 8.234375 -4.625 C 8.160156 -4.625 8.125 -4.632812 8.125 -4.65625 C 8.125 -5.25 7.976562 -5.671875 7.6875 -5.921875 C 7.40625 -6.171875 6.929688 -6.296875 6.265625 -6.296875 L 3.875 -6.296875 L 3.875 -1.703125 C 3.875 -1.328125 3.914062 -1.050781 4 -0.875 C 4.082031 -0.707031 4.226562 -0.585938 4.4375 -0.515625 C 4.65625 -0.453125 4.988281 -0.421875 5.4375 -0.421875 L 7.046875 -0.421875 C 7.679688 -0.421875 8.210938 -0.644531 8.640625 -1.09375 C 9.066406 -1.550781 9.351562 -2.179688 9.5 -2.984375 Z M 9.5 -2.984375 "/></g></g></g><g fill="#121e36" fill-opacity="1"><g transform="translate(124.636588, 227.500108)"><g/></g></g><g fill="#121e36" fill-opacity="1"><g transform="translate(129.314738, 227.500108)"><g><path d="M 8.21875 -12.71875 C 9.0625 -12.71875 9.769531 -12.65625 10.34375 -12.53125 C 10.914062 -12.414062 11.488281 -12.210938 12.0625 -11.921875 C 12.15625 -11.867188 12.207031 -11.820312 12.21875 -11.78125 C 12.226562 -11.738281 12.25 -11.640625 12.28125 -11.484375 L 12.515625 -9.09375 C 12.515625 -9.0625 12.476562 -9.039062 12.40625 -9.03125 C 12.332031 -9.019531 12.289062 -9.035156 12.28125 -9.078125 C 11.664062 -11.304688 10.289062 -12.421875 8.15625 -12.421875 C 7.039062 -12.421875 6.054688 -12.171875 5.203125 -11.671875 C 4.347656 -11.179688 3.6875 -10.476562 3.21875 -9.5625 C 2.75 -8.65625 2.515625 -7.59375 2.515625 -6.375 C 2.515625 -5.21875 2.769531 -4.15625 3.28125 -3.1875 C 3.800781 -2.21875 4.5 -1.453125 5.375 -0.890625 C 6.25 -0.335938 7.195312 -0.0625 8.21875 -0.0625 C 9.3125 -0.0625 10.195312 -0.328125 10.875 -0.859375 C 11.5625 -1.390625 12.082031 -2.203125 12.4375 -3.296875 C 12.4375 -3.328125 12.472656 -3.34375 12.546875 -3.34375 C 12.640625 -3.34375 12.6875 -3.320312 12.6875 -3.28125 L 12.484375 -1.078125 C 12.460938 -0.921875 12.4375 -0.820312 12.40625 -0.78125 C 12.382812 -0.738281 12.335938 -0.691406 12.265625 -0.640625 C 11.566406 -0.304688 10.914062 -0.0703125 10.3125 0.0625 C 9.707031 0.195312 9.007812 0.265625 8.21875 0.265625 C 6.820312 0.265625 5.570312 -0.0078125 4.46875 -0.5625 C 3.363281 -1.125 2.503906 -1.90625 1.890625 -2.90625 C 1.285156 -3.90625 0.984375 -5.050781 0.984375 -6.34375 C 0.984375 -7.59375 1.296875 -8.703125 1.921875 -9.671875 C 2.546875 -10.640625 3.40625 -11.390625 4.5 -11.921875 C 5.601562 -12.453125 6.84375 -12.71875 8.21875 -12.71875 Z M 8.21875 -12.71875 "/></g></g></g><g fill="#121e36" fill-opacity="1"><g transform="translate(143.029326, 227.500108)"><g><path d="M 7.3125 0.234375 C 6.070312 0.234375 4.96875 -0.0507812 4 -0.625 C 3.039062 -1.207031 2.296875 -1.992188 1.765625 -2.984375 C 1.242188 -3.984375 0.984375 -5.066406 0.984375 -6.234375 C 0.984375 -7.609375 1.328125 -8.785156 2.015625 -9.765625 C 2.710938 -10.742188 3.601562 -11.476562 4.6875 -11.96875 C 5.769531 -12.46875 6.878906 -12.71875 8.015625 -12.71875 C 9.285156 -12.71875 10.398438 -12.421875 11.359375 -11.828125 C 12.316406 -11.234375 13.050781 -10.445312 13.5625 -9.46875 C 14.082031 -8.5 14.34375 -7.46875 14.34375 -6.375 C 14.34375 -5.164062 14.019531 -4.050781 13.375 -3.03125 C 12.738281 -2.019531 11.882812 -1.222656 10.8125 -0.640625 C 9.738281 -0.0546875 8.570312 0.234375 7.3125 0.234375 Z M 8.015625 -0.1875 C 8.921875 -0.1875 9.738281 -0.40625 10.46875 -0.84375 C 11.195312 -1.28125 11.769531 -1.925781 12.1875 -2.78125 C 12.601562 -3.632812 12.8125 -4.644531 12.8125 -5.8125 C 12.8125 -7.070312 12.578125 -8.1875 12.109375 -9.15625 C 11.648438 -10.132812 10.992188 -10.894531 10.140625 -11.4375 C 9.296875 -11.988281 8.3125 -12.265625 7.1875 -12.265625 C 5.71875 -12.265625 4.566406 -11.789062 3.734375 -10.84375 C 2.910156 -9.894531 2.5 -8.59375 2.5 -6.9375 C 2.5 -5.6875 2.734375 -4.539062 3.203125 -3.5 C 3.671875 -2.46875 4.320312 -1.65625 5.15625 -1.0625 C 6 -0.476562 6.953125 -0.1875 8.015625 -0.1875 Z M 8.015625 -0.1875 "/></g></g></g><g fill="#121e36" fill-opacity="1"><g transform="translate(158.343282, 227.500108)"><g><path d="M 14.078125 -12.5 C 14.117188 -12.5 14.140625 -12.457031 14.140625 -12.375 C 14.140625 -12.300781 14.117188 -12.265625 14.078125 -12.265625 C 13.515625 -12.265625 13.109375 -12.109375 12.859375 -11.796875 C 12.609375 -11.492188 12.484375 -10.992188 12.484375 -10.296875 L 12.484375 0.234375 C 12.484375 0.265625 12.445312 0.285156 12.375 0.296875 C 12.3125 0.304688 12.265625 0.300781 12.234375 0.28125 L 3.046875 -10.859375 L 2.859375 -11.0625 L 2.859375 -2.1875 C 2.859375 -1.488281 2.976562 -0.988281 3.21875 -0.6875 C 3.46875 -0.382812 3.867188 -0.234375 4.421875 -0.234375 C 4.460938 -0.234375 4.484375 -0.191406 4.484375 -0.109375 C 4.484375 -0.0351562 4.460938 0 4.421875 0 C 4.085938 0 3.832031 -0.00390625 3.65625 -0.015625 L 2.65625 -0.046875 L 1.640625 -0.015625 C 1.453125 -0.00390625 1.175781 0 0.8125 0 C 0.789062 0 0.78125 -0.0351562 0.78125 -0.109375 C 0.78125 -0.191406 0.789062 -0.234375 0.8125 -0.234375 C 1.394531 -0.234375 1.804688 -0.382812 2.046875 -0.6875 C 2.285156 -0.988281 2.40625 -1.488281 2.40625 -2.1875 L 2.40625 -11.546875 C 1.882812 -12.023438 1.351562 -12.265625 0.8125 -12.265625 C 0.78125 -12.265625 0.765625 -12.300781 0.765625 -12.375 C 0.765625 -12.457031 0.78125 -12.5 0.8125 -12.5 L 1.5625 -12.484375 C 1.71875 -12.460938 1.9375 -12.453125 2.21875 -12.453125 C 2.507812 -12.453125 2.75 -12.457031 2.9375 -12.46875 C 3.125 -12.488281 3.269531 -12.5 3.375 -12.5 C 3.488281 -12.5 3.566406 -12.472656 3.609375 -12.421875 C 3.660156 -12.378906 3.738281 -12.28125 3.84375 -12.125 C 4 -11.882812 4.15625 -11.660156 4.3125 -11.453125 L 12.015625 -2 L 12.015625 -10.296875 C 12.015625 -10.992188 11.894531 -11.492188 11.65625 -11.796875 C 11.425781 -12.109375 11.039062 -12.265625 10.5 -12.265625 C 10.46875 -12.265625 10.453125 -12.300781 10.453125 -12.375 C 10.453125 -12.457031 10.46875 -12.5 10.5 -12.5 L 11.28125 -12.484375 C 11.675781 -12.453125 12.003906 -12.4375 12.265625 -12.4375 C 12.503906 -12.4375 12.835938 -12.453125 13.265625 -12.484375 Z M 14.078125 -12.5 "/></g></g></g><g fill="#121e36" fill-opacity="1"><g transform="translate(172.877552, 227.500108)"><g><path d="M 8.21875 -12.71875 C 9.0625 -12.71875 9.769531 -12.65625 10.34375 -12.53125 C 10.914062 -12.414062 11.488281 -12.210938 12.0625 -11.921875 C 12.15625 -11.867188 12.207031 -11.820312 12.21875 -11.78125 C 12.226562 -11.738281 12.25 -11.640625 12.28125 -11.484375 L 12.515625 -9.09375 C 12.515625 -9.0625 12.476562 -9.039062 12.40625 -9.03125 C 12.332031 -9.019531 12.289062 -9.035156 12.28125 -9.078125 C 11.664062 -11.304688 10.289062 -12.421875 8.15625 -12.421875 C 7.039062 -12.421875 6.054688 -12.171875 5.203125 -11.671875 C 4.347656 -11.179688 3.6875 -10.476562 3.21875 -9.5625 C 2.75 -8.65625 2.515625 -7.59375 2.515625 -6.375 C 2.515625 -5.21875 2.769531 -4.15625 3.28125 -3.1875 C 3.800781 -2.21875 4.5 -1.453125 5.375 -0.890625 C 6.25 -0.335938 7.195312 -0.0625 8.21875 -0.0625 C 9.3125 -0.0625 10.195312 -0.328125 10.875 -0.859375 C 11.5625 -1.390625 12.082031 -2.203125 12.4375 -3.296875 C 12.4375 -3.328125 12.472656 -3.34375 12.546875 -3.34375 C 12.640625 -3.34375 12.6875 -3.320312 12.6875 -3.28125 L 12.484375 -1.078125 C 12.460938 -0.921875 12.4375 -0.820312 12.40625 -0.78125 C 12.382812 -0.738281 12.335938 -0.691406 12.265625 -0.640625 C 11.566406 -0.304688 10.914062 -0.0703125 10.3125 0.0625 C 9.707031 0.195312 9.007812 0.265625 8.21875 0.265625 C 6.820312 0.265625 5.570312 -0.0078125 4.46875 -0.5625 C 3.363281 -1.125 2.503906 -1.90625 1.890625 -2.90625 C 1.285156 -3.90625 0.984375 -5.050781 0.984375 -6.34375 C 0.984375 -7.59375 1.296875 -8.703125 1.921875 -9.671875 C 2.546875 -10.640625 3.40625 -11.390625 4.5 -11.921875 C 5.601562 -12.453125 6.84375 -12.71875 8.21875 -12.71875 Z M 8.21875 -12.71875 "/></g></g></g><g fill="#121e36" fill-opacity="1"><g transform="translate(186.59214, 227.500108)"><g><path d="M 9.5 -2.984375 C 9.5 -3.003906 9.523438 -3.015625 9.578125 -3.015625 C 9.617188 -3.015625 9.65625 -3.007812 9.6875 -3 C 9.71875 -2.988281 9.734375 -2.96875 9.734375 -2.9375 C 9.617188 -2.101562 9.5625 -1.222656 9.5625 -0.296875 C 9.5625 -0.191406 9.535156 -0.113281 9.484375 -0.0625 C 9.441406 -0.0195312 9.359375 0 9.234375 0 L 0.859375 0 C 0.828125 0 0.8125 -0.0351562 0.8125 -0.109375 C 0.8125 -0.191406 0.828125 -0.234375 0.859375 -0.234375 C 1.367188 -0.234375 1.738281 -0.265625 1.96875 -0.328125 C 2.195312 -0.398438 2.351562 -0.53125 2.4375 -0.71875 C 2.53125 -0.914062 2.578125 -1.21875 2.578125 -1.625 L 2.578125 -10.875 C 2.578125 -11.28125 2.53125 -11.578125 2.4375 -11.765625 C 2.351562 -11.953125 2.195312 -12.082031 1.96875 -12.15625 C 1.738281 -12.226562 1.367188 -12.265625 0.859375 -12.265625 C 0.828125 -12.265625 0.8125 -12.300781 0.8125 -12.375 C 0.8125 -12.457031 0.828125 -12.5 0.859375 -12.5 L 8.90625 -12.5 C 9.019531 -12.5 9.078125 -12.4375 9.078125 -12.3125 L 9.125 -9.859375 C 9.125 -9.816406 9.085938 -9.789062 9.015625 -9.78125 C 8.953125 -9.78125 8.914062 -9.800781 8.90625 -9.84375 C 8.863281 -10.550781 8.648438 -11.097656 8.265625 -11.484375 C 7.878906 -11.878906 7.363281 -12.078125 6.71875 -12.078125 L 5.5 -12.078125 C 5.03125 -12.078125 4.6875 -12.039062 4.46875 -11.96875 C 4.25 -11.894531 4.09375 -11.765625 4 -11.578125 C 3.914062 -11.398438 3.875 -11.132812 3.875 -10.78125 L 3.875 -6.71875 L 6.3125 -6.71875 C 6.957031 -6.71875 7.414062 -6.820312 7.6875 -7.03125 C 7.957031 -7.25 8.09375 -7.613281 8.09375 -8.125 C 8.09375 -8.144531 8.132812 -8.15625 8.21875 -8.15625 C 8.300781 -8.15625 8.34375 -8.144531 8.34375 -8.125 L 8.3125 -6.5 C 8.3125 -6.113281 8.320312 -5.820312 8.34375 -5.625 L 8.359375 -4.65625 C 8.359375 -4.632812 8.316406 -4.625 8.234375 -4.625 C 8.160156 -4.625 8.125 -4.632812 8.125 -4.65625 C 8.125 -5.25 7.976562 -5.671875 7.6875 -5.921875 C 7.40625 -6.171875 6.929688 -6.296875 6.265625 -6.296875 L 3.875 -6.296875 L 3.875 -1.703125 C 3.875 -1.328125 3.914062 -1.050781 4 -0.875 C 4.082031 -0.707031 4.226562 -0.585938 4.4375 -0.515625 C 4.65625 -0.453125 4.988281 -0.421875 5.4375 -0.421875 L 7.046875 -0.421875 C 7.679688 -0.421875 8.210938 -0.644531 8.640625 -1.09375 C 9.066406 -1.550781 9.351562 -2.179688 9.5 -2.984375 Z M 9.5 -2.984375 "/></g></g></g><g fill="#121e36" fill-opacity="1"><g transform="translate(197.327899, 227.500108)"><g><path d="M 13.65625 -0.234375 C 13.6875 -0.234375 13.703125 -0.191406 13.703125 -0.109375 C 13.703125 -0.0351562 13.6875 0 13.65625 0 L 11.078125 0 C 10.742188 0 10.113281 -0.550781 9.1875 -1.65625 C 8.269531 -2.757812 7.179688 -4.28125 5.921875 -6.21875 C 5.554688 -6.132812 5.179688 -6.09375 4.796875 -6.09375 C 4.722656 -6.09375 4.425781 -6.113281 3.90625 -6.15625 L 3.90625 -1.625 C 3.90625 -1.207031 3.941406 -0.90625 4.015625 -0.71875 C 4.097656 -0.53125 4.253906 -0.398438 4.484375 -0.328125 C 4.722656 -0.265625 5.09375 -0.234375 5.59375 -0.234375 C 5.632812 -0.234375 5.65625 -0.191406 5.65625 -0.109375 C 5.65625 -0.0351562 5.632812 0 5.59375 0 C 5.1875 0 4.863281 -0.00390625 4.625 -0.015625 L 3.234375 -0.046875 L 1.875 -0.015625 C 1.632812 -0.00390625 1.296875 0 0.859375 0 C 0.828125 0 0.8125 -0.0351562 0.8125 -0.109375 C 0.8125 -0.191406 0.828125 -0.234375 0.859375 -0.234375 C 1.367188 -0.234375 1.742188 -0.265625 1.984375 -0.328125 C 2.222656 -0.398438 2.382812 -0.53125 2.46875 -0.71875 C 2.550781 -0.914062 2.59375 -1.21875 2.59375 -1.625 L 2.59375 -10.875 C 2.59375 -11.28125 2.550781 -11.578125 2.46875 -11.765625 C 2.394531 -11.953125 2.238281 -12.082031 2 -12.15625 C 1.769531 -12.226562 1.40625 -12.265625 0.90625 -12.265625 C 0.863281 -12.265625 0.84375 -12.300781 0.84375 -12.375 C 0.84375 -12.457031 0.863281 -12.5 0.90625 -12.5 L 1.875 -12.484375 C 2.4375 -12.453125 2.890625 -12.4375 3.234375 -12.4375 C 3.535156 -12.4375 3.8125 -12.441406 4.0625 -12.453125 C 4.3125 -12.472656 4.523438 -12.488281 4.703125 -12.5 C 5.191406 -12.539062 5.640625 -12.5625 6.046875 -12.5625 C 7.097656 -12.5625 7.910156 -12.320312 8.484375 -11.84375 C 9.054688 -11.363281 9.34375 -10.722656 9.34375 -9.921875 C 9.34375 -9.203125 9.128906 -8.550781 8.703125 -7.96875 C 8.285156 -7.382812 7.734375 -6.925781 7.046875 -6.59375 C 8.160156 -4.988281 9.097656 -3.726562 9.859375 -2.8125 C 10.628906 -1.894531 11.3125 -1.234375 11.90625 -0.828125 C 12.5 -0.429688 13.082031 -0.234375 13.65625 -0.234375 Z M 3.90625 -6.640625 C 4.238281 -6.585938 4.628906 -6.5625 5.078125 -6.5625 C 6.117188 -6.5625 6.863281 -6.785156 7.3125 -7.234375 C 7.757812 -7.691406 7.984375 -8.394531 7.984375 -9.34375 C 7.984375 -10.382812 7.75 -11.128906 7.28125 -11.578125 C 6.820312 -12.035156 6.15625 -12.265625 5.28125 -12.265625 C 4.757812 -12.265625 4.398438 -12.171875 4.203125 -11.984375 C 4.003906 -11.796875 3.90625 -11.414062 3.90625 -10.84375 Z M 3.90625 -6.640625 "/></g></g></g><g fill="#121e36" fill-opacity="1"><g transform="translate(210.782591, 227.500108)"><g><path d="M 3.78125 -12.140625 C 2.9375 -12.140625 2.304688 -11.925781 1.890625 -11.5 C 1.472656 -11.070312 1.171875 -10.34375 0.984375 -9.3125 C 0.984375 -9.289062 0.945312 -9.28125 0.875 -9.28125 C 0.800781 -9.28125 0.765625 -9.289062 0.765625 -9.3125 C 0.816406 -9.800781 0.875 -10.429688 0.9375 -11.203125 C 1.007812 -11.972656 1.046875 -12.550781 1.046875 -12.9375 C 1.046875 -13.007812 1.082031 -13.046875 1.15625 -13.046875 C 1.226562 -13.046875 1.265625 -13.007812 1.265625 -12.9375 C 1.265625 -12.644531 1.625 -12.5 2.34375 -12.5 C 3.476562 -12.457031 4.816406 -12.4375 6.359375 -12.4375 C 7.148438 -12.4375 7.984375 -12.453125 8.859375 -12.484375 L 10.21875 -12.5 C 10.695312 -12.5 11.050781 -12.53125 11.28125 -12.59375 C 11.519531 -12.664062 11.671875 -12.800781 11.734375 -13 C 11.753906 -13.050781 11.796875 -13.078125 11.859375 -13.078125 C 11.921875 -13.078125 11.953125 -13.050781 11.953125 -13 C 11.921875 -12.613281 11.882812 -12.023438 11.84375 -11.234375 C 11.800781 -10.453125 11.78125 -9.8125 11.78125 -9.3125 C 11.78125 -9.289062 11.738281 -9.28125 11.65625 -9.28125 C 11.582031 -9.28125 11.546875 -9.289062 11.546875 -9.3125 C 11.503906 -10.351562 11.285156 -11.082031 10.890625 -11.5 C 10.503906 -11.925781 9.867188 -12.140625 8.984375 -12.140625 C 8.378906 -12.140625 7.945312 -12.113281 7.6875 -12.0625 C 7.4375 -12.007812 7.265625 -11.894531 7.171875 -11.71875 C 7.085938 -11.539062 7.046875 -11.25 7.046875 -10.84375 L 7.046875 -1.625 C 7.046875 -1.207031 7.085938 -0.90625 7.171875 -0.71875 C 7.265625 -0.53125 7.445312 -0.398438 7.71875 -0.328125 C 7.988281 -0.265625 8.410156 -0.234375 8.984375 -0.234375 C 9.023438 -0.234375 9.046875 -0.191406 9.046875 -0.109375 C 9.046875 -0.0351562 9.023438 0 8.984375 0 C 8.535156 0 8.179688 -0.00390625 7.921875 -0.015625 L 6.359375 -0.046875 L 4.859375 -0.015625 C 4.585938 -0.00390625 4.222656 0 3.765625 0 C 3.734375 0 3.71875 -0.0351562 3.71875 -0.109375 C 3.71875 -0.191406 3.734375 -0.234375 3.765625 -0.234375 C 4.335938 -0.234375 4.753906 -0.265625 5.015625 -0.328125 C 5.285156 -0.398438 5.46875 -0.53125 5.5625 -0.71875 C 5.664062 -0.914062 5.71875 -1.21875 5.71875 -1.625 L 5.71875 -10.875 C 5.71875 -11.289062 5.671875 -11.582031 5.578125 -11.75 C 5.484375 -11.914062 5.3125 -12.019531 5.0625 -12.0625 C 4.8125 -12.113281 4.382812 -12.140625 3.78125 -12.140625 Z M 3.78125 -12.140625 "/></g></g></g><g fill="#121e36" fill-opacity="1"><g transform="translate(223.457574, 227.500108)"><g/></g></g><g fill="#121e36" fill-opacity="1"><g transform="translate(228.135735, 227.500108)"><g><path d="M 3.78125 -12.140625 C 2.9375 -12.140625 2.304688 -11.925781 1.890625 -11.5 C 1.472656 -11.070312 1.171875 -10.34375 0.984375 -9.3125 C 0.984375 -9.289062 0.945312 -9.28125 0.875 -9.28125 C 0.800781 -9.28125 0.765625 -9.289062 0.765625 -9.3125 C 0.816406 -9.800781 0.875 -10.429688 0.9375 -11.203125 C 1.007812 -11.972656 1.046875 -12.550781 1.046875 -12.9375 C 1.046875 -13.007812 1.082031 -13.046875 1.15625 -13.046875 C 1.226562 -13.046875 1.265625 -13.007812 1.265625 -12.9375 C 1.265625 -12.644531 1.625 -12.5 2.34375 -12.5 C 3.476562 -12.457031 4.816406 -12.4375 6.359375 -12.4375 C 7.148438 -12.4375 7.984375 -12.453125 8.859375 -12.484375 L 10.21875 -12.5 C 10.695312 -12.5 11.050781 -12.53125 11.28125 -12.59375 C 11.519531 -12.664062 11.671875 -12.800781 11.734375 -13 C 11.753906 -13.050781 11.796875 -13.078125 11.859375 -13.078125 C 11.921875 -13.078125 11.953125 -13.050781 11.953125 -13 C 11.921875 -12.613281 11.882812 -12.023438 11.84375 -11.234375 C 11.800781 -10.453125 11.78125 -9.8125 11.78125 -9.3125 C 11.78125 -9.289062 11.738281 -9.28125 11.65625 -9.28125 C 11.582031 -9.28125 11.546875 -9.289062 11.546875 -9.3125 C 11.503906 -10.351562 11.285156 -11.082031 10.890625 -11.5 C 10.503906 -11.925781 9.867188 -12.140625 8.984375 -12.140625 C 8.378906 -12.140625 7.945312 -12.113281 7.6875 -12.0625 C 7.4375 -12.007812 7.265625 -11.894531 7.171875 -11.71875 C 7.085938 -11.539062 7.046875 -11.25 7.046875 -10.84375 L 7.046875 -1.625 C 7.046875 -1.207031 7.085938 -0.90625 7.171875 -0.71875 C 7.265625 -0.53125 7.445312 -0.398438 7.71875 -0.328125 C 7.988281 -0.265625 8.410156 -0.234375 8.984375 -0.234375 C 9.023438 -0.234375 9.046875 -0.191406 9.046875 -0.109375 C 9.046875 -0.0351562 9.023438 0 8.984375 0 C 8.535156 0 8.179688 -0.00390625 7.921875 -0.015625 L 6.359375 -0.046875 L 4.859375 -0.015625 C 4.585938 -0.00390625 4.222656 0 3.765625 0 C 3.734375 0 3.71875 -0.0351562 3.71875 -0.109375 C 3.71875 -0.191406 3.734375 -0.234375 3.765625 -0.234375 C 4.335938 -0.234375 4.753906 -0.265625 5.015625 -0.328125 C 5.285156 -0.398438 5.46875 -0.53125 5.5625 -0.71875 C 5.664062 -0.914062 5.71875 -1.21875 5.71875 -1.625 L 5.71875 -10.875 C 5.71875 -11.289062 5.671875 -11.582031 5.578125 -11.75 C 5.484375 -11.914062 5.3125 -12.019531 5.0625 -12.0625 C 4.8125 -12.113281 4.382812 -12.140625 3.78125 -12.140625 Z M 3.78125 -12.140625 "/></g></g></g><g fill="#121e36" fill-opacity="1"><g transform="translate(240.81073, 227.500108)"><g><path d="M 7.3125 0.234375 C 6.070312 0.234375 4.96875 -0.0507812 4 -0.625 C 3.039062 -1.207031 2.296875 -1.992188 1.765625 -2.984375 C 1.242188 -3.984375 0.984375 -5.066406 0.984375 -6.234375 C 0.984375 -7.609375 1.328125 -8.785156 2.015625 -9.765625 C 2.710938 -10.742188 3.601562 -11.476562 4.6875 -11.96875 C 5.769531 -12.46875 6.878906 -12.71875 8.015625 -12.71875 C 9.285156 -12.71875 10.398438 -12.421875 11.359375 -11.828125 C 12.316406 -11.234375 13.050781 -10.445312 13.5625 -9.46875 C 14.082031 -8.5 14.34375 -7.46875 14.34375 -6.375 C 14.34375 -5.164062 14.019531 -4.050781 13.375 -3.03125 C 12.738281 -2.019531 11.882812 -1.222656 10.8125 -0.640625 C 9.738281 -0.0546875 8.570312 0.234375 7.3125 0.234375 Z M 8.015625 -0.1875 C 8.921875 -0.1875 9.738281 -0.40625 10.46875 -0.84375 C 11.195312 -1.28125 11.769531 -1.925781 12.1875 -2.78125 C 12.601562 -3.632812 12.8125 -4.644531 12.8125 -5.8125 C 12.8125 -7.070312 12.578125 -8.1875 12.109375 -9.15625 C 11.648438 -10.132812 10.992188 -10.894531 10.140625 -11.4375 C 9.296875 -11.988281 8.3125 -12.265625 7.1875 -12.265625 C 5.71875 -12.265625 4.566406 -11.789062 3.734375 -10.84375 C 2.910156 -9.894531 2.5 -8.59375 2.5 -6.9375 C 2.5 -5.6875 2.734375 -4.539062 3.203125 -3.5 C 3.671875 -2.46875 4.320312 -1.65625 5.15625 -1.0625 C 6 -0.476562 6.953125 -0.1875 8.015625 -0.1875 Z M 8.015625 -0.1875 "/></g></g></g><g fill="#121e36" fill-opacity="1"><g transform="translate(256.124687, 227.500108)"><g/></g></g><g fill="#121e36" fill-opacity="1"><g transform="translate(260.802848, 227.500108)"><g><path d="M 3.78125 -12.140625 C 2.9375 -12.140625 2.304688 -11.925781 1.890625 -11.5 C 1.472656 -11.070312 1.171875 -10.34375 0.984375 -9.3125 C 0.984375 -9.289062 0.945312 -9.28125 0.875 -9.28125 C 0.800781 -9.28125 0.765625 -9.289062 0.765625 -9.3125 C 0.816406 -9.800781 0.875 -10.429688 0.9375 -11.203125 C 1.007812 -11.972656 1.046875 -12.550781 1.046875 -12.9375 C 1.046875 -13.007812 1.082031 -13.046875 1.15625 -13.046875 C 1.226562 -13.046875 1.265625 -13.007812 1.265625 -12.9375 C 1.265625 -12.644531 1.625 -12.5 2.34375 -12.5 C 3.476562 -12.457031 4.816406 -12.4375 6.359375 -12.4375 C 7.148438 -12.4375 7.984375 -12.453125 8.859375 -12.484375 L 10.21875 -12.5 C 10.695312 -12.5 11.050781 -12.53125 11.28125 -12.59375 C 11.519531 -12.664062 11.671875 -12.800781 11.734375 -13 C 11.753906 -13.050781 11.796875 -13.078125 11.859375 -13.078125 C 11.921875 -13.078125 11.953125 -13.050781 11.953125 -13 C 11.921875 -12.613281 11.882812 -12.023438 11.84375 -11.234375 C 11.800781 -10.453125 11.78125 -9.8125 11.78125 -9.3125 C 11.78125 -9.289062 11.738281 -9.28125 11.65625 -9.28125 C 11.582031 -9.28125 11.546875 -9.289062 11.546875 -9.3125 C 11.503906 -10.351562 11.285156 -11.082031 10.890625 -11.5 C 10.503906 -11.925781 9.867188 -12.140625 8.984375 -12.140625 C 8.378906 -12.140625 7.945312 -12.113281 7.6875 -12.0625 C 7.4375 -12.007812 7.265625 -11.894531 7.171875 -11.71875 C 7.085938 -11.539062 7.046875 -11.25 7.046875 -10.84375 L 7.046875 -1.625 C 7.046875 -1.207031 7.085938 -0.90625 7.171875 -0.71875 C 7.265625 -0.53125 7.445312 -0.398438 7.71875 -0.328125 C 7.988281 -0.265625 8.410156 -0.234375 8.984375 -0.234375 C 9.023438 -0.234375 9.046875 -0.191406 9.046875 -0.109375 C 9.046875 -0.0351562 9.023438 0 8.984375 0 C 8.535156 0 8.179688 -0.00390625 7.921875 -0.015625 L 6.359375 -0.046875 L 4.859375 -0.015625 C 4.585938 -0.00390625 4.222656 0 3.765625 0 C 3.734375 0 3.71875 -0.0351562 3.71875 -0.109375 C 3.71875 -0.191406 3.734375 -0.234375 3.765625 -0.234375 C 4.335938 -0.234375 4.753906 -0.265625 5.015625 -0.328125 C 5.285156 -0.398438 5.46875 -0.53125 5.5625 -0.71875 C 5.664062 -0.914062 5.71875 -1.21875 5.71875 -1.625 L 5.71875 -10.875 C 5.71875 -11.289062 5.671875 -11.582031 5.578125 -11.75 C 5.484375 -11.914062 5.3125 -12.019531 5.0625 -12.0625 C 4.8125 -12.113281 4.382812 -12.140625 3.78125 -12.140625 Z M 3.78125 -12.140625 "/></g></g></g><g fill="#121e36" fill-opacity="1"><g transform="translate(273.477819, 227.500108)"><g><path d="M 14.4375 -0.234375 C 14.476562 -0.234375 14.5 -0.191406 14.5 -0.109375 C 14.5 -0.0351562 14.476562 0 14.4375 0 C 14.019531 0 13.691406 -0.00390625 13.453125 -0.015625 L 12.078125 -0.046875 L 10.59375 -0.015625 C 10.375 -0.00390625 10.0625 0 9.65625 0 C 9.613281 0 9.59375 -0.0351562 9.59375 -0.109375 C 9.59375 -0.191406 9.613281 -0.234375 9.65625 -0.234375 C 10.175781 -0.234375 10.554688 -0.265625 10.796875 -0.328125 C 11.035156 -0.398438 11.195312 -0.53125 11.28125 -0.71875 C 11.375 -0.914062 11.421875 -1.21875 11.421875 -1.625 L 11.421875 -6.296875 L 3.734375 -6.296875 L 3.734375 -1.625 C 3.734375 -1.21875 3.773438 -0.914062 3.859375 -0.71875 C 3.953125 -0.53125 4.117188 -0.398438 4.359375 -0.328125 C 4.597656 -0.265625 4.976562 -0.234375 5.5 -0.234375 C 5.53125 -0.234375 5.546875 -0.191406 5.546875 -0.109375 C 5.546875 -0.0351562 5.53125 0 5.5 0 C 5.082031 0 4.753906 -0.00390625 4.515625 -0.015625 L 3.078125 -0.046875 L 1.703125 -0.015625 C 1.460938 -0.00390625 1.128906 0 0.703125 0 C 0.671875 0 0.65625 -0.0351562 0.65625 -0.109375 C 0.65625 -0.191406 0.671875 -0.234375 0.703125 -0.234375 C 1.203125 -0.234375 1.578125 -0.265625 1.828125 -0.328125 C 2.078125 -0.398438 2.242188 -0.53125 2.328125 -0.71875 C 2.410156 -0.914062 2.453125 -1.21875 2.453125 -1.625 L 2.453125 -10.875 C 2.453125 -11.28125 2.410156 -11.578125 2.328125 -11.765625 C 2.242188 -11.953125 2.082031 -12.082031 1.84375 -12.15625 C 1.601562 -12.226562 1.226562 -12.265625 0.71875 -12.265625 C 0.695312 -12.265625 0.6875 -12.300781 0.6875 -12.375 C 0.6875 -12.457031 0.695312 -12.5 0.71875 -12.5 L 1.734375 -12.484375 C 2.296875 -12.453125 2.742188 -12.4375 3.078125 -12.4375 C 3.460938 -12.4375 3.953125 -12.453125 4.546875 -12.484375 L 5.5 -12.5 C 5.53125 -12.5 5.546875 -12.457031 5.546875 -12.375 C 5.546875 -12.300781 5.53125 -12.265625 5.5 -12.265625 C 4.988281 -12.265625 4.609375 -12.222656 4.359375 -12.140625 C 4.117188 -12.054688 3.953125 -11.914062 3.859375 -11.71875 C 3.773438 -11.53125 3.734375 -11.238281 3.734375 -10.84375 L 3.734375 -6.71875 L 11.421875 -6.71875 L 11.421875 -10.84375 C 11.421875 -11.238281 11.375 -11.53125 11.28125 -11.71875 C 11.195312 -11.914062 11.035156 -12.054688 10.796875 -12.140625 C 10.554688 -12.222656 10.175781 -12.265625 9.65625 -12.265625 C 9.613281 -12.265625 9.59375 -12.300781 9.59375 -12.375 C 9.59375 -12.457031 9.613281 -12.5 9.65625 -12.5 L 10.59375 -12.484375 C 11.1875 -12.453125 11.679688 -12.4375 12.078125 -12.4375 C 12.441406 -12.4375 12.898438 -12.453125 13.453125 -12.484375 L 14.4375 -12.5 C 14.476562 -12.5 14.5 -12.457031 14.5 -12.375 C 14.5 -12.300781 14.476562 -12.265625 14.4375 -12.265625 C 13.9375 -12.265625 13.5625 -12.226562 13.3125 -12.15625 C 13.070312 -12.082031 12.910156 -11.953125 12.828125 -11.765625 C 12.742188 -11.578125 12.703125 -11.28125 12.703125 -10.875 L 12.703125 -1.625 C 12.703125 -1.21875 12.742188 -0.914062 12.828125 -0.71875 C 12.910156 -0.53125 13.070312 -0.398438 13.3125 -0.328125 C 13.5625 -0.265625 13.9375 -0.234375 14.4375 -0.234375 Z M 14.4375 -0.234375 "/></g></g></g><g fill="#121e36" fill-opacity="1"><g transform="translate(288.65186, 227.500108)"><g><path d="M 9.5 -2.984375 C 9.5 -3.003906 9.523438 -3.015625 9.578125 -3.015625 C 9.617188 -3.015625 9.65625 -3.007812 9.6875 -3 C 9.71875 -2.988281 9.734375 -2.96875 9.734375 -2.9375 C 9.617188 -2.101562 9.5625 -1.222656 9.5625 -0.296875 C 9.5625 -0.191406 9.535156 -0.113281 9.484375 -0.0625 C 9.441406 -0.0195312 9.359375 0 9.234375 0 L 0.859375 0 C 0.828125 0 0.8125 -0.0351562 0.8125 -0.109375 C 0.8125 -0.191406 0.828125 -0.234375 0.859375 -0.234375 C 1.367188 -0.234375 1.738281 -0.265625 1.96875 -0.328125 C 2.195312 -0.398438 2.351562 -0.53125 2.4375 -0.71875 C 2.53125 -0.914062 2.578125 -1.21875 2.578125 -1.625 L 2.578125 -10.875 C 2.578125 -11.28125 2.53125 -11.578125 2.4375 -11.765625 C 2.351562 -11.953125 2.195312 -12.082031 1.96875 -12.15625 C 1.738281 -12.226562 1.367188 -12.265625 0.859375 -12.265625 C 0.828125 -12.265625 0.8125 -12.300781 0.8125 -12.375 C 0.8125 -12.457031 0.828125 -12.5 0.859375 -12.5 L 8.90625 -12.5 C 9.019531 -12.5 9.078125 -12.4375 9.078125 -12.3125 L 9.125 -9.859375 C 9.125 -9.816406 9.085938 -9.789062 9.015625 -9.78125 C 8.953125 -9.78125 8.914062 -9.800781 8.90625 -9.84375 C 8.863281 -10.550781 8.648438 -11.097656 8.265625 -11.484375 C 7.878906 -11.878906 7.363281 -12.078125 6.71875 -12.078125 L 5.5 -12.078125 C 5.03125 -12.078125 4.6875 -12.039062 4.46875 -11.96875 C 4.25 -11.894531 4.09375 -11.765625 4 -11.578125 C 3.914062 -11.398438 3.875 -11.132812 3.875 -10.78125 L 3.875 -6.71875 L 6.3125 -6.71875 C 6.957031 -6.71875 7.414062 -6.820312 7.6875 -7.03125 C 7.957031 -7.25 8.09375 -7.613281 8.09375 -8.125 C 8.09375 -8.144531 8.132812 -8.15625 8.21875 -8.15625 C 8.300781 -8.15625 8.34375 -8.144531 8.34375 -8.125 L 8.3125 -6.5 C 8.3125 -6.113281 8.320312 -5.820312 8.34375 -5.625 L 8.359375 -4.65625 C 8.359375 -4.632812 8.316406 -4.625 8.234375 -4.625 C 8.160156 -4.625 8.125 -4.632812 8.125 -4.65625 C 8.125 -5.25 7.976562 -5.671875 7.6875 -5.921875 C 7.40625 -6.171875 6.929688 -6.296875 6.265625 -6.296875 L 3.875 -6.296875 L 3.875 -1.703125 C 3.875 -1.328125 3.914062 -1.050781 4 -0.875 C 4.082031 -0.707031 4.226562 -0.585938 4.4375 -0.515625 C 4.65625 -0.453125 4.988281 -0.421875 5.4375 -0.421875 L 7.046875 -0.421875 C 7.679688 -0.421875 8.210938 -0.644531 8.640625 -1.09375 C 9.066406 -1.550781 9.351562 -2.179688 9.5 -2.984375 Z M 9.5 -2.984375 "/></g></g></g><g fill="#121e36" fill-opacity="1"><g transform="translate(299.387608, 227.500108)"><g/></g></g><g fill="#121e36" fill-opacity="1"><g transform="translate(304.065769, 227.500108)"><g><path d="M 8.21875 -12.71875 C 9.0625 -12.71875 9.769531 -12.65625 10.34375 -12.53125 C 10.914062 -12.414062 11.488281 -12.210938 12.0625 -11.921875 C 12.15625 -11.867188 12.207031 -11.820312 12.21875 -11.78125 C 12.226562 -11.738281 12.25 -11.640625 12.28125 -11.484375 L 12.515625 -9.09375 C 12.515625 -9.0625 12.476562 -9.039062 12.40625 -9.03125 C 12.332031 -9.019531 12.289062 -9.035156 12.28125 -9.078125 C 11.664062 -11.304688 10.289062 -12.421875 8.15625 -12.421875 C 7.039062 -12.421875 6.054688 -12.171875 5.203125 -11.671875 C 4.347656 -11.179688 3.6875 -10.476562 3.21875 -9.5625 C 2.75 -8.65625 2.515625 -7.59375 2.515625 -6.375 C 2.515625 -5.21875 2.769531 -4.15625 3.28125 -3.1875 C 3.800781 -2.21875 4.5 -1.453125 5.375 -0.890625 C 6.25 -0.335938 7.195312 -0.0625 8.21875 -0.0625 C 9.3125 -0.0625 10.195312 -0.328125 10.875 -0.859375 C 11.5625 -1.390625 12.082031 -2.203125 12.4375 -3.296875 C 12.4375 -3.328125 12.472656 -3.34375 12.546875 -3.34375 C 12.640625 -3.34375 12.6875 -3.320312 12.6875 -3.28125 L 12.484375 -1.078125 C 12.460938 -0.921875 12.4375 -0.820312 12.40625 -0.78125 C 12.382812 -0.738281 12.335938 -0.691406 12.265625 -0.640625 C 11.566406 -0.304688 10.914062 -0.0703125 10.3125 0.0625 C 9.707031 0.195312 9.007812 0.265625 8.21875 0.265625 C 6.820312 0.265625 5.570312 -0.0078125 4.46875 -0.5625 C 3.363281 -1.125 2.503906 -1.90625 1.890625 -2.90625 C 1.285156 -3.90625 0.984375 -5.050781 0.984375 -6.34375 C 0.984375 -7.59375 1.296875 -8.703125 1.921875 -9.671875 C 2.546875 -10.640625 3.40625 -11.390625 4.5 -11.921875 C 5.601562 -12.453125 6.84375 -12.71875 8.21875 -12.71875 Z M 8.21875 -12.71875 "/></g></g></g><g fill="#121e36" fill-opacity="1"><g transform="translate(317.780345, 227.500108)"><g><path d="M 3.984375 -1.625 C 3.984375 -1.21875 4.019531 -0.914062 4.09375 -0.71875 C 4.175781 -0.53125 4.332031 -0.398438 4.5625 -0.328125 C 4.800781 -0.265625 5.175781 -0.234375 5.6875 -0.234375 C 5.71875 -0.234375 5.734375 -0.191406 5.734375 -0.109375 C 5.734375 -0.0351562 5.71875 0 5.6875 0 C 5.28125 0 4.957031 -0.00390625 4.71875 -0.015625 L 3.296875 -0.046875 L 1.921875 -0.015625 C 1.679688 -0.00390625 1.351562 0 0.9375 0 C 0.894531 0 0.875 -0.0351562 0.875 -0.109375 C 0.875 -0.191406 0.894531 -0.234375 0.9375 -0.234375 C 1.445312 -0.234375 1.816406 -0.265625 2.046875 -0.328125 C 2.285156 -0.398438 2.445312 -0.53125 2.53125 -0.71875 C 2.613281 -0.914062 2.65625 -1.21875 2.65625 -1.625 L 2.65625 -10.875 C 2.65625 -11.28125 2.613281 -11.578125 2.53125 -11.765625 C 2.445312 -11.953125 2.285156 -12.082031 2.046875 -12.15625 C 1.816406 -12.226562 1.445312 -12.265625 0.9375 -12.265625 C 0.894531 -12.265625 0.875 -12.300781 0.875 -12.375 C 0.875 -12.457031 0.894531 -12.5 0.9375 -12.5 L 1.921875 -12.484375 C 2.484375 -12.453125 2.941406 -12.4375 3.296875 -12.4375 C 3.703125 -12.4375 4.179688 -12.453125 4.734375 -12.484375 L 5.6875 -12.5 C 5.71875 -12.5 5.734375 -12.457031 5.734375 -12.375 C 5.734375 -12.300781 5.71875 -12.265625 5.6875 -12.265625 C 5.1875 -12.265625 4.816406 -12.222656 4.578125 -12.140625 C 4.347656 -12.054688 4.191406 -11.914062 4.109375 -11.71875 C 4.023438 -11.53125 3.984375 -11.238281 3.984375 -10.84375 Z M 3.984375 -1.625 "/></g></g></g><g fill="#121e36" fill-opacity="1"><g transform="translate(324.417712, 227.500108)"><g><path d="M 3.78125 -12.140625 C 2.9375 -12.140625 2.304688 -11.925781 1.890625 -11.5 C 1.472656 -11.070312 1.171875 -10.34375 0.984375 -9.3125 C 0.984375 -9.289062 0.945312 -9.28125 0.875 -9.28125 C 0.800781 -9.28125 0.765625 -9.289062 0.765625 -9.3125 C 0.816406 -9.800781 0.875 -10.429688 0.9375 -11.203125 C 1.007812 -11.972656 1.046875 -12.550781 1.046875 -12.9375 C 1.046875 -13.007812 1.082031 -13.046875 1.15625 -13.046875 C 1.226562 -13.046875 1.265625 -13.007812 1.265625 -12.9375 C 1.265625 -12.644531 1.625 -12.5 2.34375 -12.5 C 3.476562 -12.457031 4.816406 -12.4375 6.359375 -12.4375 C 7.148438 -12.4375 7.984375 -12.453125 8.859375 -12.484375 L 10.21875 -12.5 C 10.695312 -12.5 11.050781 -12.53125 11.28125 -12.59375 C 11.519531 -12.664062 11.671875 -12.800781 11.734375 -13 C 11.753906 -13.050781 11.796875 -13.078125 11.859375 -13.078125 C 11.921875 -13.078125 11.953125 -13.050781 11.953125 -13 C 11.921875 -12.613281 11.882812 -12.023438 11.84375 -11.234375 C 11.800781 -10.453125 11.78125 -9.8125 11.78125 -9.3125 C 11.78125 -9.289062 11.738281 -9.28125 11.65625 -9.28125 C 11.582031 -9.28125 11.546875 -9.289062 11.546875 -9.3125 C 11.503906 -10.351562 11.285156 -11.082031 10.890625 -11.5 C 10.503906 -11.925781 9.867188 -12.140625 8.984375 -12.140625 C 8.378906 -12.140625 7.945312 -12.113281 7.6875 -12.0625 C 7.4375 -12.007812 7.265625 -11.894531 7.171875 -11.71875 C 7.085938 -11.539062 7.046875 -11.25 7.046875 -10.84375 L 7.046875 -1.625 C 7.046875 -1.207031 7.085938 -0.90625 7.171875 -0.71875 C 7.265625 -0.53125 7.445312 -0.398438 7.71875 -0.328125 C 7.988281 -0.265625 8.410156 -0.234375 8.984375 -0.234375 C 9.023438 -0.234375 9.046875 -0.191406 9.046875 -0.109375 C 9.046875 -0.0351562 9.023438 0 8.984375 0 C 8.535156 0 8.179688 -0.00390625 7.921875 -0.015625 L 6.359375 -0.046875 L 4.859375 -0.015625 C 4.585938 -0.00390625 4.222656 0 3.765625 0 C 3.734375 0 3.71875 -0.0351562 3.71875 -0.109375 C 3.71875 -0.191406 3.734375 -0.234375 3.765625 -0.234375 C 4.335938 -0.234375 4.753906 -0.265625 5.015625 -0.328125 C 5.285156 -0.398438 5.46875 -0.53125 5.5625 -0.71875 C 5.664062 -0.914062 5.71875 -1.21875 5.71875 -1.625 L 5.71875 -10.875 C 5.71875 -11.289062 5.671875 -11.582031 5.578125 -11.75 C 5.484375 -11.914062 5.3125 -12.019531 5.0625 -12.0625 C 4.8125 -12.113281 4.382812 -12.140625 3.78125 -12.140625 Z M 3.78125 -12.140625 "/></g></g></g><g fill="#121e36" fill-opacity="1"><g transform="translate(337.092729, 227.500108)"><g><path d="M 12.28125 -12.5 C 12.300781 -12.5 12.3125 -12.457031 12.3125 -12.375 C 12.3125 -12.300781 12.300781 -12.265625 12.28125 -12.265625 C 11.800781 -12.265625 11.3125 -12.085938 10.8125 -11.734375 C 10.320312 -11.378906 9.882812 -10.894531 9.5 -10.28125 L 6.8125 -6.15625 L 6.8125 -1.625 C 6.8125 -1.207031 6.851562 -0.90625 6.9375 -0.71875 C 7.019531 -0.53125 7.175781 -0.398438 7.40625 -0.328125 C 7.644531 -0.265625 8.015625 -0.234375 8.515625 -0.234375 C 8.554688 -0.234375 8.578125 -0.191406 8.578125 -0.109375 C 8.578125 -0.0351562 8.554688 0 8.515625 0 C 8.109375 0 7.789062 -0.00390625 7.5625 -0.015625 L 6.15625 -0.046875 L 4.78125 -0.015625 C 4.539062 -0.00390625 4.210938 0 3.796875 0 C 3.753906 0 3.734375 -0.0351562 3.734375 -0.109375 C 3.734375 -0.191406 3.753906 -0.234375 3.796875 -0.234375 C 4.304688 -0.234375 4.675781 -0.265625 4.90625 -0.328125 C 5.144531 -0.398438 5.304688 -0.53125 5.390625 -0.71875 C 5.472656 -0.914062 5.515625 -1.21875 5.515625 -1.625 L 5.515625 -5.84375 L 2.203125 -10.703125 C 1.828125 -11.285156 1.472656 -11.691406 1.140625 -11.921875 C 0.804688 -12.148438 0.421875 -12.265625 -0.015625 -12.265625 C -0.0546875 -12.265625 -0.078125 -12.300781 -0.078125 -12.375 C -0.078125 -12.457031 -0.0546875 -12.5 -0.015625 -12.5 C 0.140625 -12.5 0.378906 -12.484375 0.703125 -12.453125 L 1.40625 -12.4375 C 1.851562 -12.4375 2.425781 -12.453125 3.125 -12.484375 L 4.203125 -12.5 C 4.222656 -12.5 4.234375 -12.457031 4.234375 -12.375 C 4.234375 -12.300781 4.222656 -12.265625 4.203125 -12.265625 C 3.503906 -12.265625 3.15625 -12.125 3.15625 -11.84375 C 3.15625 -11.695312 3.222656 -11.53125 3.359375 -11.34375 L 6.578125 -6.625 L 9.015625 -10.359375 C 9.304688 -10.828125 9.453125 -11.222656 9.453125 -11.546875 C 9.453125 -12.023438 9.09375 -12.265625 8.375 -12.265625 C 8.351562 -12.265625 8.34375 -12.300781 8.34375 -12.375 C 8.34375 -12.457031 8.351562 -12.5 8.375 -12.5 L 9.3125 -12.484375 C 9.820312 -12.453125 10.289062 -12.4375 10.71875 -12.4375 C 10.945312 -12.4375 11.222656 -12.453125 11.546875 -12.484375 Z M 12.28125 -12.5 "/></g></g></g><g transform="matrix(1, 0, 0, 1, 350, 212)"><g clip-path="url(#497078e5c8)"><g fill="#121e36" fill-opacity="1"><g transform="translate(1.066925, 5.98468)"><g><path d="M 1.140625 -3.640625 C 0.878906 -3.640625 0.6875 -3.578125 0.5625 -3.453125 C 0.4375 -3.328125 0.347656 -3.109375 0.296875 -2.796875 C 0.296875 -2.785156 0.285156 -2.78125 0.265625 -2.78125 C 0.242188 -2.78125 0.234375 -2.785156 0.234375 -2.796875 C 0.242188 -2.941406 0.257812 -3.128906 0.28125 -3.359375 C 0.300781 -3.585938 0.3125 -3.757812 0.3125 -3.875 C 0.3125 -3.894531 0.320312 -3.90625 0.34375 -3.90625 C 0.363281 -3.90625 0.375 -3.894531 0.375 -3.875 C 0.375 -3.789062 0.484375 -3.75 0.703125 -3.75 C 1.046875 -3.738281 1.445312 -3.734375 1.90625 -3.734375 C 2.144531 -3.734375 2.394531 -3.738281 2.65625 -3.75 L 3.0625 -3.75 C 3.207031 -3.75 3.3125 -3.757812 3.375 -3.78125 C 3.445312 -3.800781 3.492188 -3.84375 3.515625 -3.90625 C 3.523438 -3.914062 3.539062 -3.921875 3.5625 -3.921875 C 3.582031 -3.921875 3.59375 -3.914062 3.59375 -3.90625 C 3.570312 -3.78125 3.554688 -3.597656 3.546875 -3.359375 C 3.535156 -3.128906 3.53125 -2.941406 3.53125 -2.796875 C 3.53125 -2.785156 3.519531 -2.78125 3.5 -2.78125 C 3.476562 -2.78125 3.46875 -2.785156 3.46875 -2.796875 C 3.445312 -3.109375 3.378906 -3.328125 3.265625 -3.453125 C 3.148438 -3.578125 2.957031 -3.640625 2.6875 -3.640625 C 2.507812 -3.640625 2.382812 -3.628906 2.3125 -3.609375 C 2.238281 -3.597656 2.1875 -3.566406 2.15625 -3.515625 C 2.125 -3.460938 2.109375 -3.375 2.109375 -3.25 L 2.109375 -0.484375 C 2.109375 -0.359375 2.125 -0.265625 2.15625 -0.203125 C 2.1875 -0.148438 2.238281 -0.113281 2.3125 -0.09375 C 2.394531 -0.0820312 2.519531 -0.078125 2.6875 -0.078125 C 2.707031 -0.078125 2.71875 -0.0625 2.71875 -0.03125 C 2.71875 -0.0078125 2.707031 0 2.6875 0 C 2.5625 0 2.457031 0 2.375 0 L 1.90625 -0.015625 L 1.453125 0 C 1.378906 0 1.269531 0 1.125 0 C 1.113281 0 1.109375 -0.0078125 1.109375 -0.03125 C 1.109375 -0.0625 1.113281 -0.078125 1.125 -0.078125 C 1.300781 -0.078125 1.425781 -0.0820312 1.5 -0.09375 C 1.582031 -0.113281 1.640625 -0.15625 1.671875 -0.21875 C 1.703125 -0.28125 1.71875 -0.367188 1.71875 -0.484375 L 1.71875 -3.265625 C 1.71875 -3.390625 1.703125 -3.472656 1.671875 -3.515625 C 1.640625 -3.566406 1.585938 -3.597656 1.515625 -3.609375 C 1.441406 -3.628906 1.316406 -3.640625 1.140625 -3.640625 Z M 1.140625 -3.640625 "/></g></g></g><g fill="#121e36" fill-opacity="1"><g transform="translate(4.871494, 5.98468)"><g><path d="M 4.875 -0.078125 C 4.882812 -0.078125 4.890625 -0.0625 4.890625 -0.03125 C 4.890625 -0.0078125 4.882812 0 4.875 0 C 4.75 0 4.648438 0 4.578125 0 L 4.15625 -0.015625 L 3.78125 0 C 3.71875 0 3.628906 0 3.515625 0 C 3.503906 0 3.5 -0.0078125 3.5 -0.03125 C 3.5 -0.0625 3.503906 -0.078125 3.515625 -0.078125 C 3.648438 -0.078125 3.75 -0.0859375 3.8125 -0.109375 C 3.875 -0.128906 3.914062 -0.164062 3.9375 -0.21875 C 3.96875 -0.28125 3.976562 -0.367188 3.96875 -0.484375 L 3.859375 -3.21875 L 2.484375 -0.046875 C 2.484375 -0.0234375 2.46875 -0.015625 2.4375 -0.015625 C 2.414062 -0.015625 2.398438 -0.0234375 2.390625 -0.046875 L 0.90625 -3.1875 L 0.859375 -0.65625 C 0.859375 -0.445312 0.894531 -0.296875 0.96875 -0.203125 C 1.039062 -0.117188 1.175781 -0.078125 1.375 -0.078125 C 1.375 -0.078125 1.375 -0.0625 1.375 -0.03125 C 1.375 -0.0078125 1.375 0 1.375 0 C 1.257812 0 1.171875 0 1.109375 0 L 0.78125 -0.015625 L 0.46875 0 C 0.414062 0 0.335938 0 0.234375 0 C 0.222656 0 0.21875 -0.0078125 0.21875 -0.03125 C 0.21875 -0.0625 0.222656 -0.078125 0.234375 -0.078125 C 0.398438 -0.078125 0.519531 -0.117188 0.59375 -0.203125 C 0.664062 -0.296875 0.707031 -0.445312 0.71875 -0.65625 L 0.765625 -3.4375 C 0.648438 -3.59375 0.488281 -3.671875 0.28125 -3.671875 C 0.269531 -3.671875 0.265625 -3.679688 0.265625 -3.703125 C 0.265625 -3.734375 0.269531 -3.75 0.28125 -3.75 L 0.5 -3.75 C 0.539062 -3.738281 0.597656 -3.734375 0.671875 -3.734375 C 0.742188 -3.734375 0.800781 -3.734375 0.84375 -3.734375 C 0.894531 -3.742188 0.9375 -3.75 0.96875 -3.75 C 1.019531 -3.75 1.0625 -3.726562 1.09375 -3.6875 C 1.125 -3.65625 1.171875 -3.570312 1.234375 -3.4375 L 2.578125 -0.625 L 3.890625 -3.59375 C 3.929688 -3.695312 3.988281 -3.75 4.0625 -3.75 C 4.082031 -3.75 4.113281 -3.742188 4.15625 -3.734375 C 4.195312 -3.734375 4.25 -3.734375 4.3125 -3.734375 L 4.59375 -3.75 C 4.632812 -3.75 4.695312 -3.75 4.78125 -3.75 C 4.800781 -3.75 4.8125 -3.734375 4.8125 -3.703125 C 4.8125 -3.679688 4.800781 -3.671875 4.78125 -3.671875 C 4.582031 -3.671875 4.441406 -3.640625 4.359375 -3.578125 C 4.273438 -3.523438 4.234375 -3.421875 4.234375 -3.265625 L 4.359375 -0.484375 C 4.359375 -0.359375 4.367188 -0.265625 4.390625 -0.203125 C 4.421875 -0.148438 4.46875 -0.113281 4.53125 -0.09375 C 4.601562 -0.0820312 4.71875 -0.078125 4.875 -0.078125 Z M 4.875 -0.078125 "/></g></g></g></g></g></svg>